<svg width="72" height="72" viewBox="0 0 72 72" fill="none" xmlns="http://www.w3.org/2000/svg">
<mask id="path-1-inside-1_918_5734" fill="white">
<path d="M0 16C0 7.16344 7.16345 0 16 0H56.0005C64.8371 0 72.0005 7.16345 72.0005 16V56.0005C72.0005 64.8371 64.8371 72.0005 56.0005 72.0005H16C7.16344 72.0005 0 64.8371 0 56.0005V16Z"/>
</mask>
<path d="M0 16C0 7.16344 7.16345 0 16 0H56.0005C64.8371 0 72.0005 7.16345 72.0005 16V56.0005C72.0005 64.8371 64.8371 72.0005 56.0005 72.0005H16C7.16344 72.0005 0 64.8371 0 56.0005V16Z" fill="#141416"/>
<path d="M16 0V1.2H56.0005V0V-1.2H16V0ZM72.0005 16H70.8005V56.0005H72.0005H73.2005V16H72.0005ZM56.0005 72.0005V70.8005H16V72.0005V73.2005H56.0005V72.0005ZM0 56.0005H1.2V16H0H-1.2V56.0005H0ZM16 72.0005V70.8005C7.82618 70.8005 1.2 64.1743 1.2 56.0005H0H-1.2C-1.2 65.4998 6.5007 73.2005 16 73.2005V72.0005ZM72.0005 56.0005H70.8005C70.8005 64.1743 64.1743 70.8005 56.0005 70.8005V72.0005V73.2005C65.4998 73.2005 73.2005 65.4998 73.2005 56.0005H72.0005ZM56.0005 0V1.2C64.1743 1.2 70.8005 7.82619 70.8005 16H72.0005H73.2005C73.2005 6.5007 65.4998 -1.2 56.0005 -1.2V0ZM16 0V-1.2C6.5007 -1.2 -1.2 6.5007 -1.2 16H0H1.2C1.2 7.82618 7.82619 1.2 16 1.2V0Z" fill="url(#paint0_linear_918_5734)" mask="url(#path-1-inside-1_918_5734)"/>
<path d="M16 0V1.2H56.0005V0V-1.2H16V0ZM72.0005 16H70.8005V56.0005H72.0005H73.2005V16H72.0005ZM56.0005 72.0005V70.8005H16V72.0005V73.2005H56.0005V72.0005ZM0 56.0005H1.2V16H0H-1.2V56.0005H0ZM16 72.0005V70.8005C7.82618 70.8005 1.2 64.1743 1.2 56.0005H0H-1.2C-1.2 65.4998 6.5007 73.2005 16 73.2005V72.0005ZM72.0005 56.0005H70.8005C70.8005 64.1743 64.1743 70.8005 56.0005 70.8005V72.0005V73.2005C65.4998 73.2005 73.2005 65.4998 73.2005 56.0005H72.0005ZM56.0005 0V1.2C64.1743 1.2 70.8005 7.82619 70.8005 16H72.0005H73.2005C73.2005 6.5007 65.4998 -1.2 56.0005 -1.2V0ZM16 0V-1.2C6.5007 -1.2 -1.2 6.5007 -1.2 16H0H1.2C1.2 7.82618 7.82619 1.2 16 1.2V0Z" fill="url(#paint1_linear_918_5734)" mask="url(#path-1-inside-1_918_5734)"/>
<mask id="path-3-outside-2_918_5734" maskUnits="userSpaceOnUse" x="19.2559" y="22.46" width="33" height="28" fill="black">
<rect fill="white" x="19.2559" y="22.46" width="33" height="28"/>
<path d="M27.9463 34.5352C28.661 34.5353 29.355 34.7743 29.917 35.2148C30.0655 35.1937 30.2177 35.1836 30.3721 35.1836H42.0479C42.136 35.1836 42.2232 35.1873 42.3096 35.1943C42.8668 34.7672 43.5496 34.5352 44.2529 34.5352H48.748C50.5124 34.5352 51.9434 35.9651 51.9434 37.7295V40.2061C51.9433 40.7169 51.7356 41.2308 51.3125 41.5811C50.3992 42.3369 48.0025 44.0929 45.2422 44.1631V46.0986C45.242 46.9077 44.7269 47.6393 43.9355 47.8818C42.341 48.3701 38.8127 49.3563 36.21 49.3564C33.6074 49.3564 30.0792 48.3702 28.4844 47.8818C27.6928 47.6394 27.1779 46.9078 27.1777 46.0986V44.1641C24.1805 44.1011 21.7802 42.3401 20.8691 41.5732C20.4548 41.2245 20.2559 40.7181 20.2559 40.2188V37.7295C20.2559 35.9651 21.6868 34.5352 23.4512 34.5352H27.9463ZM30.3721 36.3828C29.2705 36.3828 28.377 37.2763 28.377 38.3779V46.0986C28.3771 46.3992 28.5664 46.6518 28.8359 46.7344C30.4432 47.2265 33.8103 48.1562 36.21 48.1562C38.6098 48.1561 41.9771 47.2264 43.584 46.7344C43.8534 46.6517 44.0418 46.3991 44.042 46.0986V38.3779C44.042 37.2765 43.1493 36.383 42.0479 36.3828H30.3721ZM23.4512 35.7344C22.3496 35.7344 21.4561 36.6279 21.4561 37.7295V40.2188C21.4561 40.4073 21.5297 40.561 21.6416 40.6553C22.4958 41.3742 24.6165 42.9003 27.1777 42.9639V38.3779C27.1777 37.3226 27.6908 36.3892 28.4795 35.8076C28.307 35.7596 28.1278 35.7344 27.9463 35.7344H23.4512ZM44.2529 35.7344C44.1297 35.7344 44.0075 35.7462 43.8877 35.7686C44.7063 36.3469 45.2422 37.2993 45.2422 38.3779V42.9639C47.5566 42.8924 49.6662 41.386 50.5479 40.6562C50.6665 40.5579 50.7431 40.3986 50.7432 40.2061V37.7295C50.7432 36.6279 49.8497 35.7344 48.748 35.7344H44.2529ZM25.8281 27.7842C27.6193 27.7842 29.0712 29.2362 29.0713 31.0273C29.0712 32.8184 27.6193 34.2705 25.8281 34.2705C24.0371 34.2704 22.5851 32.8184 22.585 31.0273C22.585 29.2362 24.037 27.7843 25.8281 27.7842ZM46.585 27.7842C48.3761 27.7842 49.8281 29.2362 49.8281 31.0273C49.828 32.8184 48.3761 34.2705 46.585 34.2705C44.7939 34.2704 43.3419 32.8184 43.3418 31.0273C43.3419 29.2363 44.7939 27.7843 46.585 27.7842ZM36.6865 23.4668C39.4285 23.6057 41.6094 25.8729 41.6094 28.6494L41.6025 28.916C41.4635 31.6577 39.1962 33.8388 36.4199 33.8389L36.1523 33.832C33.4993 33.6971 31.3718 31.5691 31.2373 28.916L31.2305 28.6494C31.2305 25.7836 33.5542 23.4602 36.4199 23.46L36.6865 23.4668ZM25.8281 28.7842C24.5893 28.7843 23.585 29.7885 23.585 31.0273C23.5851 32.2661 24.5893 33.2704 25.8281 33.2705C27.067 33.2705 28.0712 32.2662 28.0713 31.0273C28.0712 29.7885 27.067 28.7842 25.8281 28.7842ZM46.585 28.7842C45.3462 28.7843 44.3419 29.7885 44.3418 31.0273C44.3419 32.2661 45.3462 33.2704 46.585 33.2705C47.8238 33.2705 48.828 32.2662 48.8281 31.0273C48.8281 29.7885 47.8239 28.7842 46.585 28.7842ZM36.4199 24.6602C34.2169 24.6604 32.4307 26.4464 32.4307 28.6494C32.431 30.8522 34.2171 32.6384 36.4199 32.6387C38.6229 32.6386 40.4089 30.8523 40.4092 28.6494C40.4092 26.4463 38.6231 24.6603 36.4199 24.6602Z"/>
</mask>
<path d="M27.9463 34.5352C28.661 34.5353 29.355 34.7743 29.917 35.2148C30.0655 35.1937 30.2177 35.1836 30.3721 35.1836H42.0479C42.136 35.1836 42.2232 35.1873 42.3096 35.1943C42.8668 34.7672 43.5496 34.5352 44.2529 34.5352H48.748C50.5124 34.5352 51.9434 35.9651 51.9434 37.7295V40.2061C51.9433 40.7169 51.7356 41.2308 51.3125 41.5811C50.3992 42.3369 48.0025 44.0929 45.2422 44.1631V46.0986C45.242 46.9077 44.7269 47.6393 43.9355 47.8818C42.341 48.3701 38.8127 49.3563 36.21 49.3564C33.6074 49.3564 30.0792 48.3702 28.4844 47.8818C27.6928 47.6394 27.1779 46.9078 27.1777 46.0986V44.1641C24.1805 44.1011 21.7802 42.3401 20.8691 41.5732C20.4548 41.2245 20.2559 40.7181 20.2559 40.2188V37.7295C20.2559 35.9651 21.6868 34.5352 23.4512 34.5352H27.9463ZM30.3721 36.3828C29.2705 36.3828 28.377 37.2763 28.377 38.3779V46.0986C28.3771 46.3992 28.5664 46.6518 28.8359 46.7344C30.4432 47.2265 33.8103 48.1562 36.21 48.1562C38.6098 48.1561 41.9771 47.2264 43.584 46.7344C43.8534 46.6517 44.0418 46.3991 44.042 46.0986V38.3779C44.042 37.2765 43.1493 36.383 42.0479 36.3828H30.3721ZM23.4512 35.7344C22.3496 35.7344 21.4561 36.6279 21.4561 37.7295V40.2188C21.4561 40.4073 21.5297 40.561 21.6416 40.6553C22.4958 41.3742 24.6165 42.9003 27.1777 42.9639V38.3779C27.1777 37.3226 27.6908 36.3892 28.4795 35.8076C28.307 35.7596 28.1278 35.7344 27.9463 35.7344H23.4512ZM44.2529 35.7344C44.1297 35.7344 44.0075 35.7462 43.8877 35.7686C44.7063 36.3469 45.2422 37.2993 45.2422 38.3779V42.9639C47.5566 42.8924 49.6662 41.386 50.5479 40.6562C50.6665 40.5579 50.7431 40.3986 50.7432 40.2061V37.7295C50.7432 36.6279 49.8497 35.7344 48.748 35.7344H44.2529ZM25.8281 27.7842C27.6193 27.7842 29.0712 29.2362 29.0713 31.0273C29.0712 32.8184 27.6193 34.2705 25.8281 34.2705C24.0371 34.2704 22.5851 32.8184 22.585 31.0273C22.585 29.2362 24.037 27.7843 25.8281 27.7842ZM46.585 27.7842C48.3761 27.7842 49.8281 29.2362 49.8281 31.0273C49.828 32.8184 48.3761 34.2705 46.585 34.2705C44.7939 34.2704 43.3419 32.8184 43.3418 31.0273C43.3419 29.2363 44.7939 27.7843 46.585 27.7842ZM36.6865 23.4668C39.4285 23.6057 41.6094 25.8729 41.6094 28.6494L41.6025 28.916C41.4635 31.6577 39.1962 33.8388 36.4199 33.8389L36.1523 33.832C33.4993 33.6971 31.3718 31.5691 31.2373 28.916L31.2305 28.6494C31.2305 25.7836 33.5542 23.4602 36.4199 23.46L36.6865 23.4668ZM25.8281 28.7842C24.5893 28.7843 23.585 29.7885 23.585 31.0273C23.5851 32.2661 24.5893 33.2704 25.8281 33.2705C27.067 33.2705 28.0712 32.2662 28.0713 31.0273C28.0712 29.7885 27.067 28.7842 25.8281 28.7842ZM46.585 28.7842C45.3462 28.7843 44.3419 29.7885 44.3418 31.0273C44.3419 32.2661 45.3462 33.2704 46.585 33.2705C47.8238 33.2705 48.828 32.2662 48.8281 31.0273C48.8281 29.7885 47.8239 28.7842 46.585 28.7842ZM36.4199 24.6602C34.2169 24.6604 32.4307 26.4464 32.4307 28.6494C32.431 30.8522 34.2171 32.6384 36.4199 32.6387C38.6229 32.6386 40.4089 30.8523 40.4092 28.6494C40.4092 26.4463 38.6231 24.6603 36.4199 24.6602Z" fill="#F1F2F4"/>
<path d="M27.9463 34.5352C28.661 34.5353 29.355 34.7743 29.917 35.2148C30.0655 35.1937 30.2177 35.1836 30.3721 35.1836H42.0479C42.136 35.1836 42.2232 35.1873 42.3096 35.1943C42.8668 34.7672 43.5496 34.5352 44.2529 34.5352H48.748C50.5124 34.5352 51.9434 35.9651 51.9434 37.7295V40.2061C51.9433 40.7169 51.7356 41.2308 51.3125 41.5811C50.3992 42.3369 48.0025 44.0929 45.2422 44.1631V46.0986C45.242 46.9077 44.7269 47.6393 43.9355 47.8818C42.341 48.3701 38.8127 49.3563 36.21 49.3564C33.6074 49.3564 30.0792 48.3702 28.4844 47.8818C27.6928 47.6394 27.1779 46.9078 27.1777 46.0986V44.1641C24.1805 44.1011 21.7802 42.3401 20.8691 41.5732C20.4548 41.2245 20.2559 40.7181 20.2559 40.2188V37.7295C20.2559 35.9651 21.6868 34.5352 23.4512 34.5352H27.9463ZM30.3721 36.3828C29.2705 36.3828 28.377 37.2763 28.377 38.3779V46.0986C28.3771 46.3992 28.5664 46.6518 28.8359 46.7344C30.4432 47.2265 33.8103 48.1562 36.21 48.1562C38.6098 48.1561 41.9771 47.2264 43.584 46.7344C43.8534 46.6517 44.0418 46.3991 44.042 46.0986V38.3779C44.042 37.2765 43.1493 36.383 42.0479 36.3828H30.3721ZM23.4512 35.7344C22.3496 35.7344 21.4561 36.6279 21.4561 37.7295V40.2188C21.4561 40.4073 21.5297 40.561 21.6416 40.6553C22.4958 41.3742 24.6165 42.9003 27.1777 42.9639V38.3779C27.1777 37.3226 27.6908 36.3892 28.4795 35.8076C28.307 35.7596 28.1278 35.7344 27.9463 35.7344H23.4512ZM44.2529 35.7344C44.1297 35.7344 44.0075 35.7462 43.8877 35.7686C44.7063 36.3469 45.2422 37.2993 45.2422 38.3779V42.9639C47.5566 42.8924 49.6662 41.386 50.5479 40.6562C50.6665 40.5579 50.7431 40.3986 50.7432 40.2061V37.7295C50.7432 36.6279 49.8497 35.7344 48.748 35.7344H44.2529ZM25.8281 27.7842C27.6193 27.7842 29.0712 29.2362 29.0713 31.0273C29.0712 32.8184 27.6193 34.2705 25.8281 34.2705C24.0371 34.2704 22.5851 32.8184 22.585 31.0273C22.585 29.2362 24.037 27.7843 25.8281 27.7842ZM46.585 27.7842C48.3761 27.7842 49.8281 29.2362 49.8281 31.0273C49.828 32.8184 48.3761 34.2705 46.585 34.2705C44.7939 34.2704 43.3419 32.8184 43.3418 31.0273C43.3419 29.2363 44.7939 27.7843 46.585 27.7842ZM36.6865 23.4668C39.4285 23.6057 41.6094 25.8729 41.6094 28.6494L41.6025 28.916C41.4635 31.6577 39.1962 33.8388 36.4199 33.8389L36.1523 33.832C33.4993 33.6971 31.3718 31.5691 31.2373 28.916L31.2305 28.6494C31.2305 25.7836 33.5542 23.4602 36.4199 23.46L36.6865 23.4668ZM25.8281 28.7842C24.5893 28.7843 23.585 29.7885 23.585 31.0273C23.5851 32.2661 24.5893 33.2704 25.8281 33.2705C27.067 33.2705 28.0712 32.2662 28.0713 31.0273C28.0712 29.7885 27.067 28.7842 25.8281 28.7842ZM46.585 28.7842C45.3462 28.7843 44.3419 29.7885 44.3418 31.0273C44.3419 32.2661 45.3462 33.2704 46.585 33.2705C47.8238 33.2705 48.828 32.2662 48.8281 31.0273C48.8281 29.7885 47.8239 28.7842 46.585 28.7842ZM36.4199 24.6602C34.2169 24.6604 32.4307 26.4464 32.4307 28.6494C32.431 30.8522 34.2171 32.6384 36.4199 32.6387C38.6229 32.6386 40.4089 30.8523 40.4092 28.6494C40.4092 26.4463 38.6231 24.6603 36.4199 24.6602Z" fill="url(#paint2_linear_918_5734)"/>
<path d="M27.9463 34.5352L27.9463 34.2352H27.9463V34.5352ZM29.917 35.2148L29.7319 35.451L29.8326 35.5299L29.9593 35.5118L29.917 35.2148ZM42.0479 35.1836L42.0479 34.8836H42.0479V35.1836ZM42.3096 35.1943L42.2853 35.4934L42.4004 35.5027L42.4921 35.4324L42.3096 35.1943ZM44.2529 34.5352V34.2352H44.2529L44.2529 34.5352ZM51.9434 40.2061L52.2434 40.2061V40.2061H51.9434ZM51.3125 41.5811L51.5038 41.8122L51.5038 41.8122L51.3125 41.5811ZM45.2422 44.1631L45.2346 43.8632L44.9422 43.8706V44.1631H45.2422ZM45.2422 46.0986L45.5422 46.0987V46.0986H45.2422ZM43.9355 47.8818L44.0234 48.1687L44.0235 48.1687L43.9355 47.8818ZM36.21 49.3564V49.6564H36.21L36.21 49.3564ZM28.4844 47.8818L28.3965 48.1687L28.3965 48.1687L28.4844 47.8818ZM27.1777 46.0986H26.8777V46.0987L27.1777 46.0986ZM27.1777 44.1641H27.4777V43.8703L27.184 43.8641L27.1777 44.1641ZM20.8691 41.5732L20.6759 41.8027L20.676 41.8028L20.8691 41.5732ZM20.2559 40.2188H19.9559V40.2188L20.2559 40.2188ZM28.377 46.0986H28.077V46.0988L28.377 46.0986ZM28.8359 46.7344L28.7481 47.0212H28.7481L28.8359 46.7344ZM36.21 48.1562V48.4562H36.21L36.21 48.1562ZM43.584 46.7344L43.6718 47.0212L43.672 47.0212L43.584 46.7344ZM44.042 46.0986L44.342 46.0988V46.0986H44.042ZM42.0479 36.3828L42.0479 36.0828H42.0479V36.3828ZM21.4561 40.2188H21.1561V40.2188L21.4561 40.2188ZM21.6416 40.6553L21.4483 40.8847L21.4484 40.8848L21.6416 40.6553ZM27.1777 42.9639L27.1703 43.2638L27.4777 43.2714V42.9639H27.1777ZM28.4795 35.8076L28.6575 36.0491L29.1531 35.6836L28.5599 35.5186L28.4795 35.8076ZM27.9463 35.7344L27.9464 35.4344H27.9463V35.7344ZM44.2529 35.7344V35.4344H44.2529L44.2529 35.7344ZM43.8877 35.7686L43.8326 35.4737L43.1348 35.604L43.7146 36.0136L43.8877 35.7686ZM45.2422 42.9639H44.9422V43.2733L45.2514 43.2637L45.2422 42.9639ZM50.5479 40.6562L50.7391 40.8874L50.7393 40.8873L50.5479 40.6562ZM50.7432 40.2061L51.0432 40.2061V40.2061H50.7432ZM25.8281 27.7842V27.4842H25.8281L25.8281 27.7842ZM29.0713 31.0273L29.3713 31.0274V31.0273L29.0713 31.0273ZM25.8281 34.2705L25.8281 34.5705H25.8281V34.2705ZM22.585 31.0273L22.285 31.0273V31.0274L22.585 31.0273ZM46.585 27.7842V27.4842H46.5849L46.585 27.7842ZM49.8281 31.0273L50.1281 31.0274V31.0273L49.8281 31.0273ZM46.585 34.2705L46.5849 34.5705H46.585V34.2705ZM43.3418 31.0273L43.0418 31.0273V31.0274L43.3418 31.0273ZM36.6865 23.4668L36.7017 23.1671L36.6942 23.1669L36.6865 23.4668ZM41.6094 28.6494L41.9094 28.6571V28.6494H41.6094ZM41.6025 28.916L41.9022 28.9312L41.9024 28.9237L41.6025 28.916ZM36.4199 33.8389L36.4123 34.1389H36.4199L36.4199 33.8389ZM36.1523 33.832L36.1371 34.1317L36.1447 34.1319L36.1523 33.832ZM31.2373 28.916L30.9373 28.9237L30.9377 28.9312L31.2373 28.916ZM31.2305 28.6494H30.9304L30.9306 28.6571L31.2305 28.6494ZM36.4199 23.46L36.4276 23.16L36.4199 23.16L36.4199 23.46ZM25.8281 28.7842V28.4842H25.8281L25.8281 28.7842ZM23.585 31.0273L23.285 31.0273V31.0274L23.585 31.0273ZM25.8281 33.2705L25.8281 33.5705H25.8281V33.2705ZM28.0713 31.0273L28.3713 31.0274V31.0273L28.0713 31.0273ZM46.585 28.7842V28.4842H46.5849L46.585 28.7842ZM44.3418 31.0273L44.0418 31.0273V31.0274L44.3418 31.0273ZM46.585 33.2705L46.5849 33.5705H46.585V33.2705ZM48.8281 31.0273L49.1281 31.0274V31.0273L48.8281 31.0273ZM36.4199 24.6602L36.4199 24.3602H36.4199L36.4199 24.6602ZM32.4307 28.6494H32.1307V28.6495L32.4307 28.6494ZM36.4199 32.6387L36.4199 32.9387H36.4199L36.4199 32.6387ZM40.4092 28.6494L40.7092 28.6495V28.6494H40.4092ZM27.9463 34.5352L27.9462 34.8352C28.5941 34.8353 29.2229 35.0519 29.7319 35.451L29.917 35.2148L30.1021 34.9787C29.4871 34.4967 28.7279 34.2353 27.9463 34.2352L27.9463 34.5352ZM29.917 35.2148L29.9593 35.5118C30.0927 35.4928 30.2308 35.4836 30.3721 35.4836V35.1836V34.8836C30.2047 34.8836 30.0383 34.8945 29.8747 34.9178L29.917 35.2148ZM30.3721 35.1836V35.4836H42.0479V35.1836V34.8836H30.3721V35.1836ZM42.0479 35.1836L42.0478 35.4836C42.1275 35.4836 42.2067 35.487 42.2853 35.4934L42.3096 35.1943L42.3339 34.8953C42.2398 34.8877 42.1444 34.8836 42.0479 34.8836L42.0479 35.1836ZM42.3096 35.1943L42.4921 35.4324C42.997 35.0454 43.6157 34.8352 44.2529 34.8352L44.2529 34.5352L44.2529 34.2352C43.4836 34.2352 42.7366 34.489 42.1271 34.9562L42.3096 35.1943ZM44.2529 34.5352V34.8352H48.748V34.5352V34.2352H44.2529V34.5352ZM48.748 34.5352V34.8352C50.3468 34.8352 51.6434 36.1309 51.6434 37.7295H51.9434H52.2434C52.2434 35.7993 50.678 34.2352 48.748 34.2352V34.5352ZM51.9434 37.7295H51.6434V40.2061H51.9434H52.2434V37.7295H51.9434ZM51.9434 40.2061L51.6434 40.206C51.6433 40.6374 51.4682 41.0627 51.1212 41.35L51.3125 41.5811L51.5038 41.8122C52.0031 41.3989 52.2433 40.7963 52.2434 40.2061L51.9434 40.2061ZM51.3125 41.5811L51.1212 41.3499C50.216 42.0991 47.8872 43.7958 45.2346 43.8632L45.2422 44.1631L45.2498 44.463C48.1178 44.3901 50.5824 42.5748 51.5038 41.8122L51.3125 41.5811ZM45.2422 44.1631H44.9422V46.0986H45.2422H45.5422V44.1631H45.2422ZM45.2422 46.0986L44.9422 46.0986C44.942 46.7807 44.5083 47.3925 43.8476 47.595L43.9355 47.8818L44.0235 48.1687C44.9455 47.886 45.542 47.0346 45.5422 46.0987L45.2422 46.0986ZM43.9355 47.8818L43.8477 47.595C42.2501 48.0842 38.762 49.0563 36.2099 49.0564L36.21 49.3564L36.21 49.6564C38.8635 49.6563 42.4319 48.656 44.0234 48.1687L43.9355 47.8818ZM36.21 49.3564V49.0564C33.6581 49.0564 30.1701 48.0843 28.5722 47.595L28.4844 47.8818L28.3965 48.1687C29.9883 48.6561 33.5566 49.6564 36.21 49.6564V49.3564ZM28.4844 47.8818L28.5722 47.595C27.9115 47.3926 27.4779 46.7809 27.4777 46.0986L27.1777 46.0986L26.8777 46.0987C26.878 47.0346 27.4742 47.8862 28.3965 48.1687L28.4844 47.8818ZM27.1777 46.0986H27.4777V44.1641H27.1777H26.8777V46.0986H27.1777ZM27.1777 44.1641L27.184 43.8641C24.2926 43.8034 21.9593 42.0986 21.0623 41.3437L20.8691 41.5732L20.676 41.8028C21.6012 42.5815 24.0685 44.3988 27.1714 44.464L27.1777 44.1641ZM20.8691 41.5732L21.0623 41.3437C20.7236 41.0586 20.5559 40.6405 20.5559 40.2187L20.2559 40.2188L19.9559 40.2188C19.9559 40.7958 20.186 41.3903 20.6759 41.8027L20.8691 41.5732ZM20.2559 40.2188H20.5559V37.7295H20.2559H19.9559V40.2188H20.2559ZM20.2559 37.7295H20.5559C20.5559 36.1309 21.8524 34.8352 23.4512 34.8352V34.5352V34.2352C21.5213 34.2352 19.9559 35.7993 19.9559 37.7295H20.2559ZM23.4512 34.5352V34.8352H27.9463V34.5352V34.2352H23.4512V34.5352ZM30.3721 36.3828V36.0828C29.1048 36.0828 28.077 37.1106 28.077 38.3779H28.377H28.677C28.677 37.442 29.4361 36.6828 30.3721 36.6828V36.3828ZM28.377 38.3779H28.077V46.0986H28.377H28.677V38.3779H28.377ZM28.377 46.0986L28.077 46.0988C28.0772 46.5278 28.3493 46.8991 28.7481 47.0212L28.8359 46.7344L28.9238 46.4475C28.7834 46.4045 28.6771 46.2706 28.677 46.0984L28.377 46.0986ZM28.8359 46.7344L28.7481 47.0212C30.3521 47.5124 33.7595 48.4562 36.21 48.4562V48.1562V47.8563C33.8611 47.8563 30.5342 46.9406 28.9238 46.4475L28.8359 46.7344ZM36.21 48.1562L36.21 48.4562C38.6606 48.4561 42.0681 47.5123 43.6718 47.0212L43.584 46.7344L43.4961 46.4475C41.886 46.9405 38.559 47.8561 36.2099 47.8563L36.21 48.1562ZM43.584 46.7344L43.672 47.0212C44.071 46.8988 44.3417 46.5271 44.342 46.0988L44.042 46.0986L43.742 46.0984C43.7419 46.2711 43.6358 46.4047 43.496 46.4476L43.584 46.7344ZM44.042 46.0986H44.342V38.3779H44.042H43.742V46.0986H44.042ZM44.042 38.3779H44.342C44.342 37.1109 43.3151 36.0831 42.0479 36.0828L42.0479 36.3828L42.0478 36.6828C42.9834 36.683 43.742 37.442 43.742 38.3779H44.042ZM42.0479 36.3828V36.0828H30.3721V36.3828V36.6828H42.0479V36.3828ZM23.4512 35.7344V35.4344C22.1839 35.4344 21.1561 36.4622 21.1561 37.7295H21.4561H21.7561C21.7561 36.7936 22.5152 36.0344 23.4512 36.0344V35.7344ZM21.4561 37.7295H21.1561V40.2188H21.4561H21.7561V37.7295H21.4561ZM21.4561 40.2188L21.1561 40.2188C21.1561 40.486 21.2616 40.7274 21.4483 40.8847L21.6416 40.6553L21.8349 40.4259C21.7978 40.3946 21.7561 40.3285 21.7561 40.2187L21.4561 40.2188ZM21.6416 40.6553L21.4484 40.8848C22.3169 41.6157 24.504 43.1976 27.1703 43.2638L27.1777 42.9639L27.1852 42.664C24.7289 42.603 22.6747 41.1327 21.8348 40.4257L21.6416 40.6553ZM27.1777 42.9639H27.4777V38.3779H27.1777H26.8777V42.9639H27.1777ZM27.1777 38.3779H27.4777C27.4777 37.4224 27.9418 36.5769 28.6575 36.0491L28.4795 35.8076L28.3014 35.5662C27.4398 36.2016 26.8777 37.2228 26.8777 38.3779H27.1777ZM28.4795 35.8076L28.5599 35.5186C28.3618 35.4635 28.1556 35.4344 27.9464 35.4344L27.9463 35.7344L27.9462 36.0344C28.0999 36.0344 28.2521 36.0558 28.3991 36.0966L28.4795 35.8076ZM27.9463 35.7344V35.4344H23.4512V35.7344V36.0344H27.9463V35.7344ZM44.2529 35.7344L44.2529 35.4344C44.1105 35.4344 43.9699 35.448 43.8326 35.4737L43.8877 35.7686L43.9428 36.0635C44.0451 36.0443 44.1488 36.0344 44.253 36.0344L44.2529 35.7344ZM43.8877 35.7686L43.7146 36.0136C44.4573 36.5384 44.9422 37.4012 44.9422 38.3779H45.2422H45.5422C45.5422 37.1974 44.9552 36.1555 44.0608 35.5235L43.8877 35.7686ZM45.2422 38.3779H44.9422V42.9639H45.2422H45.5422V38.3779H45.2422ZM45.2422 42.9639L45.2514 43.2637C47.6725 43.189 49.8494 41.6238 50.7391 40.8874L50.5479 40.6562L50.3566 40.4251C49.4831 41.1481 47.4406 42.5959 45.2329 42.664L45.2422 42.9639ZM50.5479 40.6562L50.7393 40.8873C50.9333 40.7265 51.0431 40.479 51.0432 40.2061L50.7432 40.2061L50.4432 40.206C50.4431 40.3182 50.3997 40.3894 50.3564 40.4252L50.5479 40.6562ZM50.7432 40.2061H51.0432V37.7295H50.7432H50.4432V40.2061H50.7432ZM50.7432 37.7295H51.0432C51.0432 36.4622 50.0153 35.4344 48.748 35.4344V35.7344V36.0344C49.684 36.0344 50.4432 36.7936 50.4432 37.7295H50.7432ZM48.748 35.7344V35.4344H44.2529V35.7344V36.0344H48.748V35.7344ZM25.8281 27.7842V28.0842C27.4536 28.0842 28.7712 29.4019 28.7713 31.0274L29.0713 31.0273L29.3713 31.0273C29.3712 29.0705 27.785 27.4842 25.8281 27.4842V27.7842ZM29.0713 31.0273L28.7713 31.0273C28.7712 32.6528 27.4536 33.9705 25.8281 33.9705V34.2705V34.5705C27.785 34.5705 29.3711 32.9841 29.3713 31.0274L29.0713 31.0273ZM25.8281 34.2705L25.8281 33.9705C24.2028 33.9704 22.8851 32.6527 22.885 31.0273L22.585 31.0273L22.285 31.0274C22.2851 32.9841 23.8714 34.5704 25.8281 34.5705L25.8281 34.2705ZM22.585 31.0273L22.885 31.0274C22.885 29.4019 24.2027 28.0843 25.8281 28.0842L25.8281 27.7842L25.8281 27.4842C23.8713 27.4843 22.285 29.0705 22.285 31.0273L22.585 31.0273ZM46.585 27.7842V28.0842C48.2104 28.0842 49.5281 29.4019 49.5281 31.0274L49.8281 31.0273L50.1281 31.0273C50.128 29.0705 48.5418 27.4842 46.585 27.4842V27.7842ZM49.8281 31.0273L49.5281 31.0273C49.528 32.6528 48.2104 33.9705 46.585 33.9705V34.2705V34.5705C48.5418 34.5705 50.128 32.9841 50.1281 31.0274L49.8281 31.0273ZM46.585 34.2705L46.585 33.9705C44.9596 33.9704 43.6419 32.6527 43.6418 31.0273L43.3418 31.0273L43.0418 31.0274C43.0419 32.9841 44.6282 34.5704 46.5849 34.5705L46.585 34.2705ZM43.3418 31.0273L43.6418 31.0274C43.6419 29.4019 44.9596 28.0843 46.585 28.0842L46.585 27.7842L46.5849 27.4842C44.6282 27.4843 43.0419 29.0706 43.0418 31.0273L43.3418 31.0273ZM36.6865 23.4668L36.6714 23.7664C39.2546 23.8972 41.3094 26.0336 41.3094 28.6494H41.6094H41.9094C41.9094 25.7123 39.6024 23.3141 36.7017 23.1672L36.6865 23.4668ZM41.6094 28.6494L41.3095 28.6417L41.3026 28.9083L41.6025 28.916L41.9024 28.9237L41.9093 28.6571L41.6094 28.6494ZM41.6025 28.916L41.3029 28.9008C41.1719 31.4838 39.0355 33.5388 36.4199 33.5389L36.4199 33.8389L36.4199 34.1389C39.3568 34.1388 41.755 31.8317 41.9022 28.9312L41.6025 28.916ZM36.4199 33.8389L36.4276 33.539L36.16 33.5321L36.1523 33.832L36.1447 34.1319L36.4123 34.1388L36.4199 33.8389ZM36.1523 33.832L36.1676 33.5324C33.6683 33.4053 31.6637 31.4002 31.5369 28.9008L31.2373 28.916L30.9377 28.9312C31.08 31.738 33.3304 33.9889 36.1371 34.1316L36.1523 33.832ZM31.2373 28.916L31.5372 28.9083L31.5304 28.6417L31.2305 28.6494L30.9306 28.6571L30.9374 28.9237L31.2373 28.916ZM31.2305 28.6494H31.5305C31.5305 25.9493 33.7199 23.7602 36.4199 23.76L36.4199 23.46L36.4199 23.16C33.3885 23.1602 30.9305 25.6179 30.9305 28.6494H31.2305ZM36.4199 23.46L36.4122 23.7599L36.6788 23.7667L36.6865 23.4668L36.6942 23.1669L36.4276 23.1601L36.4199 23.46ZM25.8281 28.7842L25.8281 28.4842C24.4236 28.4843 23.285 29.6228 23.285 31.0273L23.585 31.0273L23.885 31.0274C23.885 29.9542 24.755 29.0843 25.8281 29.0842L25.8281 28.7842ZM23.585 31.0273L23.285 31.0274C23.2851 32.4318 24.4236 33.5704 25.8281 33.5705L25.8281 33.2705L25.8281 32.9705C24.755 32.9704 23.8851 32.1004 23.885 31.0273L23.585 31.0273ZM25.8281 33.2705V33.5705C27.2327 33.5705 28.3711 32.4318 28.3713 31.0274L28.0713 31.0273L27.7713 31.0273C27.7712 32.1005 26.9013 32.9705 25.8281 32.9705V33.2705ZM28.0713 31.0273L28.3713 31.0273C28.3712 29.6228 27.2327 28.4842 25.8281 28.4842V28.7842V29.0842C26.9013 29.0842 27.7712 29.9541 27.7713 31.0274L28.0713 31.0273ZM46.585 28.7842L46.5849 28.4842C45.1805 28.4843 44.0419 29.6228 44.0418 31.0273L44.3418 31.0273L44.6418 31.0274C44.6419 29.9542 45.5118 29.0843 46.585 29.0842L46.585 28.7842ZM44.3418 31.0273L44.0418 31.0274C44.042 32.4318 45.1805 33.5704 46.5849 33.5705L46.585 33.2705L46.585 32.9705C45.5119 32.9704 44.6419 32.1004 44.6418 31.0273L44.3418 31.0273ZM46.585 33.2705V33.5705C47.9895 33.5705 49.128 32.4318 49.1281 31.0274L48.8281 31.0273L48.5281 31.0273C48.528 32.1005 47.6581 32.9705 46.585 32.9705V33.2705ZM48.8281 31.0273L49.1281 31.0273C49.128 29.6228 47.9896 28.4842 46.585 28.4842V28.7842V29.0842C47.6582 29.0842 48.5281 29.9541 48.5281 31.0274L48.8281 31.0273ZM36.4199 24.6602L36.4199 24.3602C34.0513 24.3604 32.1307 26.2806 32.1307 28.6494H32.4307H32.7307C32.7307 26.6121 34.3826 24.9604 36.42 24.9602L36.4199 24.6602ZM32.4307 28.6494L32.1307 28.6495C32.131 31.0179 34.0514 32.9384 36.4199 32.9387L36.4199 32.6387L36.42 32.3387C34.3828 32.3384 32.731 30.6865 32.7307 28.6494L32.4307 28.6494ZM36.4199 32.6387L36.4199 32.9387C38.7886 32.9386 40.7088 31.018 40.7092 28.6495L40.4092 28.6494L40.1092 28.6494C40.1089 30.6866 38.4571 32.3386 36.4199 32.3387L36.4199 32.6387ZM40.4092 28.6494H40.7092C40.7092 26.2806 38.7887 24.3603 36.4199 24.3602L36.4199 24.6602L36.4199 24.9602C38.4574 24.9602 40.1092 26.612 40.1092 28.6494H40.4092Z" fill="#F1F2F4" mask="url(#path-3-outside-2_918_5734)"/>
<path d="M27.9463 34.5352L27.9463 34.2352H27.9463V34.5352ZM29.917 35.2148L29.7319 35.451L29.8326 35.5299L29.9593 35.5118L29.917 35.2148ZM42.0479 35.1836L42.0479 34.8836H42.0479V35.1836ZM42.3096 35.1943L42.2853 35.4934L42.4004 35.5027L42.4921 35.4324L42.3096 35.1943ZM44.2529 34.5352V34.2352H44.2529L44.2529 34.5352ZM51.9434 40.2061L52.2434 40.2061V40.2061H51.9434ZM51.3125 41.5811L51.5038 41.8122L51.5038 41.8122L51.3125 41.5811ZM45.2422 44.1631L45.2346 43.8632L44.9422 43.8706V44.1631H45.2422ZM45.2422 46.0986L45.5422 46.0987V46.0986H45.2422ZM43.9355 47.8818L44.0234 48.1687L44.0235 48.1687L43.9355 47.8818ZM36.21 49.3564V49.6564H36.21L36.21 49.3564ZM28.4844 47.8818L28.3965 48.1687L28.3965 48.1687L28.4844 47.8818ZM27.1777 46.0986H26.8777V46.0987L27.1777 46.0986ZM27.1777 44.1641H27.4777V43.8703L27.184 43.8641L27.1777 44.1641ZM20.8691 41.5732L20.6759 41.8027L20.676 41.8028L20.8691 41.5732ZM20.2559 40.2188H19.9559V40.2188L20.2559 40.2188ZM28.377 46.0986H28.077V46.0988L28.377 46.0986ZM28.8359 46.7344L28.7481 47.0212H28.7481L28.8359 46.7344ZM36.21 48.1562V48.4562H36.21L36.21 48.1562ZM43.584 46.7344L43.6718 47.0212L43.672 47.0212L43.584 46.7344ZM44.042 46.0986L44.342 46.0988V46.0986H44.042ZM42.0479 36.3828L42.0479 36.0828H42.0479V36.3828ZM21.4561 40.2188H21.1561V40.2188L21.4561 40.2188ZM21.6416 40.6553L21.4483 40.8847L21.4484 40.8848L21.6416 40.6553ZM27.1777 42.9639L27.1703 43.2638L27.4777 43.2714V42.9639H27.1777ZM28.4795 35.8076L28.6575 36.0491L29.1531 35.6836L28.5599 35.5186L28.4795 35.8076ZM27.9463 35.7344L27.9464 35.4344H27.9463V35.7344ZM44.2529 35.7344V35.4344H44.2529L44.2529 35.7344ZM43.8877 35.7686L43.8326 35.4737L43.1348 35.604L43.7146 36.0136L43.8877 35.7686ZM45.2422 42.9639H44.9422V43.2733L45.2514 43.2637L45.2422 42.9639ZM50.5479 40.6562L50.7391 40.8874L50.7393 40.8873L50.5479 40.6562ZM50.7432 40.2061L51.0432 40.2061V40.2061H50.7432ZM25.8281 27.7842V27.4842H25.8281L25.8281 27.7842ZM29.0713 31.0273L29.3713 31.0274V31.0273L29.0713 31.0273ZM25.8281 34.2705L25.8281 34.5705H25.8281V34.2705ZM22.585 31.0273L22.285 31.0273V31.0274L22.585 31.0273ZM46.585 27.7842V27.4842H46.5849L46.585 27.7842ZM49.8281 31.0273L50.1281 31.0274V31.0273L49.8281 31.0273ZM46.585 34.2705L46.5849 34.5705H46.585V34.2705ZM43.3418 31.0273L43.0418 31.0273V31.0274L43.3418 31.0273ZM36.6865 23.4668L36.7017 23.1671L36.6942 23.1669L36.6865 23.4668ZM41.6094 28.6494L41.9094 28.6571V28.6494H41.6094ZM41.6025 28.916L41.9022 28.9312L41.9024 28.9237L41.6025 28.916ZM36.4199 33.8389L36.4123 34.1389H36.4199L36.4199 33.8389ZM36.1523 33.832L36.1371 34.1317L36.1447 34.1319L36.1523 33.832ZM31.2373 28.916L30.9373 28.9237L30.9377 28.9312L31.2373 28.916ZM31.2305 28.6494H30.9304L30.9306 28.6571L31.2305 28.6494ZM36.4199 23.46L36.4276 23.16L36.4199 23.16L36.4199 23.46ZM25.8281 28.7842V28.4842H25.8281L25.8281 28.7842ZM23.585 31.0273L23.285 31.0273V31.0274L23.585 31.0273ZM25.8281 33.2705L25.8281 33.5705H25.8281V33.2705ZM28.0713 31.0273L28.3713 31.0274V31.0273L28.0713 31.0273ZM46.585 28.7842V28.4842H46.5849L46.585 28.7842ZM44.3418 31.0273L44.0418 31.0273V31.0274L44.3418 31.0273ZM46.585 33.2705L46.5849 33.5705H46.585V33.2705ZM48.8281 31.0273L49.1281 31.0274V31.0273L48.8281 31.0273ZM36.4199 24.6602L36.4199 24.3602H36.4199L36.4199 24.6602ZM32.4307 28.6494H32.1307V28.6495L32.4307 28.6494ZM36.4199 32.6387L36.4199 32.9387H36.4199L36.4199 32.6387ZM40.4092 28.6494L40.7092 28.6495V28.6494H40.4092ZM27.9463 34.5352L27.9462 34.8352C28.5941 34.8353 29.2229 35.0519 29.7319 35.451L29.917 35.2148L30.1021 34.9787C29.4871 34.4967 28.7279 34.2353 27.9463 34.2352L27.9463 34.5352ZM29.917 35.2148L29.9593 35.5118C30.0927 35.4928 30.2308 35.4836 30.3721 35.4836V35.1836V34.8836C30.2047 34.8836 30.0383 34.8945 29.8747 34.9178L29.917 35.2148ZM30.3721 35.1836V35.4836H42.0479V35.1836V34.8836H30.3721V35.1836ZM42.0479 35.1836L42.0478 35.4836C42.1275 35.4836 42.2067 35.487 42.2853 35.4934L42.3096 35.1943L42.3339 34.8953C42.2398 34.8877 42.1444 34.8836 42.0479 34.8836L42.0479 35.1836ZM42.3096 35.1943L42.4921 35.4324C42.997 35.0454 43.6157 34.8352 44.2529 34.8352L44.2529 34.5352L44.2529 34.2352C43.4836 34.2352 42.7366 34.489 42.1271 34.9562L42.3096 35.1943ZM44.2529 34.5352V34.8352H48.748V34.5352V34.2352H44.2529V34.5352ZM48.748 34.5352V34.8352C50.3468 34.8352 51.6434 36.1309 51.6434 37.7295H51.9434H52.2434C52.2434 35.7993 50.678 34.2352 48.748 34.2352V34.5352ZM51.9434 37.7295H51.6434V40.2061H51.9434H52.2434V37.7295H51.9434ZM51.9434 40.2061L51.6434 40.206C51.6433 40.6374 51.4682 41.0627 51.1212 41.35L51.3125 41.5811L51.5038 41.8122C52.0031 41.3989 52.2433 40.7963 52.2434 40.2061L51.9434 40.2061ZM51.3125 41.5811L51.1212 41.3499C50.216 42.0991 47.8872 43.7958 45.2346 43.8632L45.2422 44.1631L45.2498 44.463C48.1178 44.3901 50.5824 42.5748 51.5038 41.8122L51.3125 41.5811ZM45.2422 44.1631H44.9422V46.0986H45.2422H45.5422V44.1631H45.2422ZM45.2422 46.0986L44.9422 46.0986C44.942 46.7807 44.5083 47.3925 43.8476 47.595L43.9355 47.8818L44.0235 48.1687C44.9455 47.886 45.542 47.0346 45.5422 46.0987L45.2422 46.0986ZM43.9355 47.8818L43.8477 47.595C42.2501 48.0842 38.762 49.0563 36.2099 49.0564L36.21 49.3564L36.21 49.6564C38.8635 49.6563 42.4319 48.656 44.0234 48.1687L43.9355 47.8818ZM36.21 49.3564V49.0564C33.6581 49.0564 30.1701 48.0843 28.5722 47.595L28.4844 47.8818L28.3965 48.1687C29.9883 48.6561 33.5566 49.6564 36.21 49.6564V49.3564ZM28.4844 47.8818L28.5722 47.595C27.9115 47.3926 27.4779 46.7809 27.4777 46.0986L27.1777 46.0986L26.8777 46.0987C26.878 47.0346 27.4742 47.8862 28.3965 48.1687L28.4844 47.8818ZM27.1777 46.0986H27.4777V44.1641H27.1777H26.8777V46.0986H27.1777ZM27.1777 44.1641L27.184 43.8641C24.2926 43.8034 21.9593 42.0986 21.0623 41.3437L20.8691 41.5732L20.676 41.8028C21.6012 42.5815 24.0685 44.3988 27.1714 44.464L27.1777 44.1641ZM20.8691 41.5732L21.0623 41.3437C20.7236 41.0586 20.5559 40.6405 20.5559 40.2187L20.2559 40.2188L19.9559 40.2188C19.9559 40.7958 20.186 41.3903 20.6759 41.8027L20.8691 41.5732ZM20.2559 40.2188H20.5559V37.7295H20.2559H19.9559V40.2188H20.2559ZM20.2559 37.7295H20.5559C20.5559 36.1309 21.8524 34.8352 23.4512 34.8352V34.5352V34.2352C21.5213 34.2352 19.9559 35.7993 19.9559 37.7295H20.2559ZM23.4512 34.5352V34.8352H27.9463V34.5352V34.2352H23.4512V34.5352ZM30.3721 36.3828V36.0828C29.1048 36.0828 28.077 37.1106 28.077 38.3779H28.377H28.677C28.677 37.442 29.4361 36.6828 30.3721 36.6828V36.3828ZM28.377 38.3779H28.077V46.0986H28.377H28.677V38.3779H28.377ZM28.377 46.0986L28.077 46.0988C28.0772 46.5278 28.3493 46.8991 28.7481 47.0212L28.8359 46.7344L28.9238 46.4475C28.7834 46.4045 28.6771 46.2706 28.677 46.0984L28.377 46.0986ZM28.8359 46.7344L28.7481 47.0212C30.3521 47.5124 33.7595 48.4562 36.21 48.4562V48.1562V47.8563C33.8611 47.8563 30.5342 46.9406 28.9238 46.4475L28.8359 46.7344ZM36.21 48.1562L36.21 48.4562C38.6606 48.4561 42.0681 47.5123 43.6718 47.0212L43.584 46.7344L43.4961 46.4475C41.886 46.9405 38.559 47.8561 36.2099 47.8563L36.21 48.1562ZM43.584 46.7344L43.672 47.0212C44.071 46.8988 44.3417 46.5271 44.342 46.0988L44.042 46.0986L43.742 46.0984C43.7419 46.2711 43.6358 46.4047 43.496 46.4476L43.584 46.7344ZM44.042 46.0986H44.342V38.3779H44.042H43.742V46.0986H44.042ZM44.042 38.3779H44.342C44.342 37.1109 43.3151 36.0831 42.0479 36.0828L42.0479 36.3828L42.0478 36.6828C42.9834 36.683 43.742 37.442 43.742 38.3779H44.042ZM42.0479 36.3828V36.0828H30.3721V36.3828V36.6828H42.0479V36.3828ZM23.4512 35.7344V35.4344C22.1839 35.4344 21.1561 36.4622 21.1561 37.7295H21.4561H21.7561C21.7561 36.7936 22.5152 36.0344 23.4512 36.0344V35.7344ZM21.4561 37.7295H21.1561V40.2188H21.4561H21.7561V37.7295H21.4561ZM21.4561 40.2188L21.1561 40.2188C21.1561 40.486 21.2616 40.7274 21.4483 40.8847L21.6416 40.6553L21.8349 40.4259C21.7978 40.3946 21.7561 40.3285 21.7561 40.2187L21.4561 40.2188ZM21.6416 40.6553L21.4484 40.8848C22.3169 41.6157 24.504 43.1976 27.1703 43.2638L27.1777 42.9639L27.1852 42.664C24.7289 42.603 22.6747 41.1327 21.8348 40.4257L21.6416 40.6553ZM27.1777 42.9639H27.4777V38.3779H27.1777H26.8777V42.9639H27.1777ZM27.1777 38.3779H27.4777C27.4777 37.4224 27.9418 36.5769 28.6575 36.0491L28.4795 35.8076L28.3014 35.5662C27.4398 36.2016 26.8777 37.2228 26.8777 38.3779H27.1777ZM28.4795 35.8076L28.5599 35.5186C28.3618 35.4635 28.1556 35.4344 27.9464 35.4344L27.9463 35.7344L27.9462 36.0344C28.0999 36.0344 28.2521 36.0558 28.3991 36.0966L28.4795 35.8076ZM27.9463 35.7344V35.4344H23.4512V35.7344V36.0344H27.9463V35.7344ZM44.2529 35.7344L44.2529 35.4344C44.1105 35.4344 43.9699 35.448 43.8326 35.4737L43.8877 35.7686L43.9428 36.0635C44.0451 36.0443 44.1488 36.0344 44.253 36.0344L44.2529 35.7344ZM43.8877 35.7686L43.7146 36.0136C44.4573 36.5384 44.9422 37.4012 44.9422 38.3779H45.2422H45.5422C45.5422 37.1974 44.9552 36.1555 44.0608 35.5235L43.8877 35.7686ZM45.2422 38.3779H44.9422V42.9639H45.2422H45.5422V38.3779H45.2422ZM45.2422 42.9639L45.2514 43.2637C47.6725 43.189 49.8494 41.6238 50.7391 40.8874L50.5479 40.6562L50.3566 40.4251C49.4831 41.1481 47.4406 42.5959 45.2329 42.664L45.2422 42.9639ZM50.5479 40.6562L50.7393 40.8873C50.9333 40.7265 51.0431 40.479 51.0432 40.2061L50.7432 40.2061L50.4432 40.206C50.4431 40.3182 50.3997 40.3894 50.3564 40.4252L50.5479 40.6562ZM50.7432 40.2061H51.0432V37.7295H50.7432H50.4432V40.2061H50.7432ZM50.7432 37.7295H51.0432C51.0432 36.4622 50.0153 35.4344 48.748 35.4344V35.7344V36.0344C49.684 36.0344 50.4432 36.7936 50.4432 37.7295H50.7432ZM48.748 35.7344V35.4344H44.2529V35.7344V36.0344H48.748V35.7344ZM25.8281 27.7842V28.0842C27.4536 28.0842 28.7712 29.4019 28.7713 31.0274L29.0713 31.0273L29.3713 31.0273C29.3712 29.0705 27.785 27.4842 25.8281 27.4842V27.7842ZM29.0713 31.0273L28.7713 31.0273C28.7712 32.6528 27.4536 33.9705 25.8281 33.9705V34.2705V34.5705C27.785 34.5705 29.3711 32.9841 29.3713 31.0274L29.0713 31.0273ZM25.8281 34.2705L25.8281 33.9705C24.2028 33.9704 22.8851 32.6527 22.885 31.0273L22.585 31.0273L22.285 31.0274C22.2851 32.9841 23.8714 34.5704 25.8281 34.5705L25.8281 34.2705ZM22.585 31.0273L22.885 31.0274C22.885 29.4019 24.2027 28.0843 25.8281 28.0842L25.8281 27.7842L25.8281 27.4842C23.8713 27.4843 22.285 29.0705 22.285 31.0273L22.585 31.0273ZM46.585 27.7842V28.0842C48.2104 28.0842 49.5281 29.4019 49.5281 31.0274L49.8281 31.0273L50.1281 31.0273C50.128 29.0705 48.5418 27.4842 46.585 27.4842V27.7842ZM49.8281 31.0273L49.5281 31.0273C49.528 32.6528 48.2104 33.9705 46.585 33.9705V34.2705V34.5705C48.5418 34.5705 50.128 32.9841 50.1281 31.0274L49.8281 31.0273ZM46.585 34.2705L46.585 33.9705C44.9596 33.9704 43.6419 32.6527 43.6418 31.0273L43.3418 31.0273L43.0418 31.0274C43.0419 32.9841 44.6282 34.5704 46.5849 34.5705L46.585 34.2705ZM43.3418 31.0273L43.6418 31.0274C43.6419 29.4019 44.9596 28.0843 46.585 28.0842L46.585 27.7842L46.5849 27.4842C44.6282 27.4843 43.0419 29.0706 43.0418 31.0273L43.3418 31.0273ZM36.6865 23.4668L36.6714 23.7664C39.2546 23.8972 41.3094 26.0336 41.3094 28.6494H41.6094H41.9094C41.9094 25.7123 39.6024 23.3141 36.7017 23.1672L36.6865 23.4668ZM41.6094 28.6494L41.3095 28.6417L41.3026 28.9083L41.6025 28.916L41.9024 28.9237L41.9093 28.6571L41.6094 28.6494ZM41.6025 28.916L41.3029 28.9008C41.1719 31.4838 39.0355 33.5388 36.4199 33.5389L36.4199 33.8389L36.4199 34.1389C39.3568 34.1388 41.755 31.8317 41.9022 28.9312L41.6025 28.916ZM36.4199 33.8389L36.4276 33.539L36.16 33.5321L36.1523 33.832L36.1447 34.1319L36.4123 34.1388L36.4199 33.8389ZM36.1523 33.832L36.1676 33.5324C33.6683 33.4053 31.6637 31.4002 31.5369 28.9008L31.2373 28.916L30.9377 28.9312C31.08 31.738 33.3304 33.9889 36.1371 34.1316L36.1523 33.832ZM31.2373 28.916L31.5372 28.9083L31.5304 28.6417L31.2305 28.6494L30.9306 28.6571L30.9374 28.9237L31.2373 28.916ZM31.2305 28.6494H31.5305C31.5305 25.9493 33.7199 23.7602 36.4199 23.76L36.4199 23.46L36.4199 23.16C33.3885 23.1602 30.9305 25.6179 30.9305 28.6494H31.2305ZM36.4199 23.46L36.4122 23.7599L36.6788 23.7667L36.6865 23.4668L36.6942 23.1669L36.4276 23.1601L36.4199 23.46ZM25.8281 28.7842L25.8281 28.4842C24.4236 28.4843 23.285 29.6228 23.285 31.0273L23.585 31.0273L23.885 31.0274C23.885 29.9542 24.755 29.0843 25.8281 29.0842L25.8281 28.7842ZM23.585 31.0273L23.285 31.0274C23.2851 32.4318 24.4236 33.5704 25.8281 33.5705L25.8281 33.2705L25.8281 32.9705C24.755 32.9704 23.8851 32.1004 23.885 31.0273L23.585 31.0273ZM25.8281 33.2705V33.5705C27.2327 33.5705 28.3711 32.4318 28.3713 31.0274L28.0713 31.0273L27.7713 31.0273C27.7712 32.1005 26.9013 32.9705 25.8281 32.9705V33.2705ZM28.0713 31.0273L28.3713 31.0273C28.3712 29.6228 27.2327 28.4842 25.8281 28.4842V28.7842V29.0842C26.9013 29.0842 27.7712 29.9541 27.7713 31.0274L28.0713 31.0273ZM46.585 28.7842L46.5849 28.4842C45.1805 28.4843 44.0419 29.6228 44.0418 31.0273L44.3418 31.0273L44.6418 31.0274C44.6419 29.9542 45.5118 29.0843 46.585 29.0842L46.585 28.7842ZM44.3418 31.0273L44.0418 31.0274C44.042 32.4318 45.1805 33.5704 46.5849 33.5705L46.585 33.2705L46.585 32.9705C45.5119 32.9704 44.6419 32.1004 44.6418 31.0273L44.3418 31.0273ZM46.585 33.2705V33.5705C47.9895 33.5705 49.128 32.4318 49.1281 31.0274L48.8281 31.0273L48.5281 31.0273C48.528 32.1005 47.6581 32.9705 46.585 32.9705V33.2705ZM48.8281 31.0273L49.1281 31.0273C49.128 29.6228 47.9896 28.4842 46.585 28.4842V28.7842V29.0842C47.6582 29.0842 48.5281 29.9541 48.5281 31.0274L48.8281 31.0273ZM36.4199 24.6602L36.4199 24.3602C34.0513 24.3604 32.1307 26.2806 32.1307 28.6494H32.4307H32.7307C32.7307 26.6121 34.3826 24.9604 36.42 24.9602L36.4199 24.6602ZM32.4307 28.6494L32.1307 28.6495C32.131 31.0179 34.0514 32.9384 36.4199 32.9387L36.4199 32.6387L36.42 32.3387C34.3828 32.3384 32.731 30.6865 32.7307 28.6494L32.4307 28.6494ZM36.4199 32.6387L36.4199 32.9387C38.7886 32.9386 40.7088 31.018 40.7092 28.6495L40.4092 28.6494L40.1092 28.6494C40.1089 30.6866 38.4571 32.3386 36.4199 32.3387L36.4199 32.6387ZM40.4092 28.6494H40.7092C40.7092 26.2806 38.7887 24.3603 36.4199 24.3602L36.4199 24.6602L36.4199 24.9602C38.4574 24.9602 40.1092 26.612 40.1092 28.6494H40.4092Z" fill="url(#paint3_linear_918_5734)" mask="url(#path-3-outside-2_918_5734)"/>
<defs>
<linearGradient id="paint0_linear_918_5734" x1="-47.3687" y1="98.527" x2="26.5265" y2="50.6846" gradientUnits="userSpaceOnUse">
<stop stop-color="#F1F2F4"/>
<stop offset="1" stop-color="#F1F2F4" stop-opacity="0"/>
</linearGradient>
<linearGradient id="paint1_linear_918_5734" x1="192.791" y1="-23.6844" x2="43.1056" y2="27.0002" gradientUnits="userSpaceOnUse">
<stop stop-color="#F1F2F4"/>
<stop offset="1" stop-color="#F1F2F4" stop-opacity="0"/>
</linearGradient>
<linearGradient id="paint2_linear_918_5734" x1="62.0238" y1="49.3609" x2="17.3974" y2="14.756" gradientUnits="userSpaceOnUse">
<stop stop-color="#F1F2F4" stop-opacity="0"/>
<stop offset="1" stop-color="#141414"/>
</linearGradient>
<linearGradient id="paint3_linear_918_5734" x1="62.0238" y1="49.3609" x2="17.3974" y2="14.756" gradientUnits="userSpaceOnUse">
<stop stop-color="#F3F4F6" stop-opacity="0"/>
<stop offset="1" stop-color="#141414"/>
</linearGradient>
</defs>
</svg>
