<svg width="48" height="48" viewBox="0 0 48 48" fill="none" xmlns="http://www.w3.org/2000/svg">
<mask id="path-1-inside-1_767_39937" fill="white">
<path d="M0 16C0 7.16344 7.16344 0 16 0H32C40.8366 0 48 7.16344 48 16V32C48 40.8366 40.8366 48 32 48H16C7.16344 48 0 40.8366 0 32V16Z"/>
</mask>
<path d="M0 16C0 7.16344 7.16344 0 16 0H32C40.8366 0 48 7.16344 48 16V32C48 40.8366 40.8366 48 32 48H16C7.16344 48 0 40.8366 0 32V16Z" fill="#1B1C1F"/>
<path d="M16 0V1H32V0V-1H16V0ZM48 16H47V32H48H49V16H48ZM32 48V47H16V48V49H32V48ZM0 32H1V16H0H-1V32H0ZM16 48V47C7.71573 47 1 40.2843 1 32H0H-1C-1 41.3888 6.61116 49 16 49V48ZM48 32H47C47 40.2843 40.2843 47 32 47V48V49C41.3888 49 49 41.3888 49 32H48ZM32 0V1C40.2843 1 47 7.71573 47 16H48H49C49 6.61116 41.3888 -1 32 -1V0ZM16 0V-1C6.61116 -1 -1 6.61116 -1 16H0H1C1 7.71573 7.71573 1 16 1V0Z" fill="#242528" mask="url(#path-1-inside-1_767_39937)"/>
<g clip-path="url(#clip0_767_39937)">
<path d="M21.5 30.5H26.5C26.632 29.298 27.005 28.083 28 27C28.113 26.878 28.915 26.106 29 26C29.7063 25.1176 30.3719 23.6229 30.5 22.5C30.6281 21.3771 30.4365 20.2408 29.9471 19.222C29.4578 18.2032 28.4566 17.1019 27.5 16.5C26.5434 15.8981 25.1302 15.5002 24 15.5C22.8698 15.4998 21.4569 15.8985 20.5 16.5C19.5431 17.1015 18.5772 18.3841 18.0874 19.4027C17.5976 20.4213 17.4055 21.5575 17.5331 22.6805C17.6608 23.8035 18.2941 25.1173 19 26C19 26 19.889 26.879 20 27C20.7639 27.8327 21.368 29.298 21.5 30.5ZM26.5 32H21.5V33H26.5V32ZM17.7542 27C16.8124 25.8233 16.2222 24.4044 16.0515 22.9069C15.8808 21.4094 16.1366 19.8942 16.7895 18.5357C17.4423 17.1773 18.4656 16.0308 19.7416 15.2286C21.0175 14.4263 22.4941 14.0007 24.0013 14.001C25.5085 14.0012 26.985 14.4272 28.2606 15.2299C29.5363 16.0326 30.5592 17.1794 31.2117 18.538C31.8641 19.8967 32.1194 21.412 31.9482 22.9095C31.7771 24.4069 31.1864 25.8256 30.2442 27.002C29.6242 27.774 28.0002 29 28.0002 30.5L28 32.5C28 33.0304 27.8751 33.6249 27.5 34C27.1249 34.3751 26.5304 34.5 26 34.5H22C21.4696 34.5 20.8751 34.3751 20.5 34C20.1249 33.6249 20 33.0304 20 32.5L20.0002 30.5C20.0002 29 18.3752 27.774 17.7542 27ZM25 22.5H27L23 28L23.5 23.5H21L25.0002 18L24.5 22.5H25Z" fill="#F1F2F4" stroke="#F1F2F4" stroke-width="0.1"/>
</g>
<defs>
<clipPath id="clip0_767_39937">
<rect width="24" height="24" fill="white" transform="translate(12 12)"/>
</clipPath>
</defs>
</svg>
