<svg width="48" height="48" viewBox="0 0 48 48" fill="none" xmlns="http://www.w3.org/2000/svg">
<mask id="path-1-inside-1_767_39946" fill="white">
<path d="M0 16C0 7.16344 7.16344 0 16 0H32C40.8366 0 48 7.16344 48 16V32C48 40.8366 40.8366 48 32 48H16C7.16344 48 0 40.8366 0 32V16Z"/>
</mask>
<path d="M0 16C0 7.16344 7.16344 0 16 0H32C40.8366 0 48 7.16344 48 16V32C48 40.8366 40.8366 48 32 48H16C7.16344 48 0 40.8366 0 32V16Z" fill="#1B1C1F"/>
<path d="M16 0V1H32V0V-1H16V0ZM48 16H47V32H48H49V16H48ZM32 48V47H16V48V49H32V48ZM0 32H1V16H0H-1V32H0ZM16 48V47C7.71573 47 1 40.2843 1 32H0H-1C-1 41.3888 6.61116 49 16 49V48ZM48 32H47C47 40.2843 40.2843 47 32 47V48V49C41.3888 49 49 41.3888 49 32H48ZM32 0V1C40.2843 1 47 7.71573 47 16H48H49C49 6.61116 41.3888 -1 32 -1V0ZM16 0V-1C6.61116 -1 -1 6.61116 -1 16H0H1C1 7.71573 7.71573 1 16 1V0Z" fill="#242528" mask="url(#path-1-inside-1_767_39946)"/>
<path d="M32.889 29.9831L32.6662 29.3195L32.6652 29.3199L32.889 29.9831ZM31.3743 30.4942L31.5956 31.1583L31.5981 31.1575L31.3743 30.4942ZM30.4822 31.3863L31.1455 31.6101L31.1477 31.6033L30.4822 31.3863ZM29.9711 32.9011L29.3078 32.6773L29.307 32.6797L29.9711 32.9011ZM27.2855 32.8732L26.617 33.081L26.6172 33.0817L27.2855 32.8732ZM25.5663 27.344L24.8968 27.5483L24.8979 27.5518L25.5663 27.344ZM27.3319 25.5691L27.1208 26.2365L27.1244 26.2376L27.3319 25.5691ZM32.8704 27.2882L33.0803 26.6204L33.0779 26.6197L32.8704 27.2882ZM15.5684 15.0456L15.1269 14.5023V14.5023L15.5684 15.0456ZM27.5925 15.0456L28.0339 14.5023V14.5023L27.5925 15.0456ZM15.5684 27.5925L15.1269 28.1358V28.1358L15.5684 27.5925ZM32.889 29.9831L32.6652 29.3199L31.1505 29.831L31.3743 30.4942L31.5981 31.1575L33.1128 30.6464L32.889 29.9831ZM31.3743 30.4942L31.1529 29.8302C30.5312 30.0374 30.0271 30.5239 29.8166 31.1693L30.4822 31.3863L31.1477 31.6033C31.216 31.3939 31.3809 31.2299 31.5956 31.1583L31.3743 30.4942ZM30.4822 31.3863L29.8189 31.1625L29.3078 32.6773L29.9711 32.9011L30.6343 33.1249L31.1454 31.6101L30.4822 31.3863ZM29.9711 32.9011L29.307 32.6797C29.0877 33.3375 28.1626 33.334 27.9537 32.6647L27.2855 32.8732L26.6172 33.0817C27.2261 35.0329 29.9809 35.0851 30.6351 33.1224L29.9711 32.9011ZM27.2855 32.8732L27.9539 32.6653L26.2347 27.1362L25.5663 27.344L24.8979 27.5518L26.617 33.081L27.2855 32.8732ZM25.5663 27.344L26.2358 27.1397C26.0608 26.5661 26.5871 26.0677 27.1209 26.2365L27.3319 25.5691L27.543 24.9016C25.9022 24.3828 24.4027 25.9288 24.8968 27.5482L25.5663 27.344ZM27.3319 25.5691L27.1244 26.2376L32.6629 27.9568L32.8704 27.2882L33.0779 26.6197L27.5394 24.9005L27.3319 25.5691ZM32.8704 27.2882L32.6605 27.956C33.3103 28.1602 33.3287 29.0971 32.6662 29.3195L32.889 29.9831L33.1118 30.6467C35.0512 29.9956 35.0325 27.234 33.0803 26.6204L32.8704 27.2882ZM24.4558 32.8204V32.1203H23.4102V32.8204V33.5203H24.4558V32.8204ZM19.2279 28.6381H19.9279V23.4102H19.2279H18.5279V28.6381H19.2279ZM23.4102 19.2279V19.9279H28.6381V19.2279V18.5279H23.4102V19.2279ZM32.8204 23.4102H32.1204V24.4558H32.8204H33.5204V23.4102H32.8204ZM28.6381 19.2279V19.9279C30.5613 19.9279 32.1204 21.487 32.1204 23.4102H32.8204H33.5204C33.5204 20.7138 31.3345 18.5279 28.6381 18.5279V19.2279ZM19.2279 23.4102H19.9279C19.9279 21.487 21.487 19.9279 23.4102 19.9279V19.2279V18.5279C20.7138 18.5279 18.5279 20.7138 18.5279 23.4102H19.2279ZM23.4102 32.8204V32.1203C21.487 32.1203 19.9279 30.5613 19.9279 28.6381H19.2279H18.5279C18.5279 31.3345 20.7138 33.5203 23.4102 33.5203V32.8204ZM14 19.7507H13.3V23.4102H14H14.7V19.7507H14ZM23.4102 14V13.3H19.7507V14V14.7H23.4102V14ZM14 17.1367C14.6169 17.4675 14.6169 17.4676 14.6168 17.4676C14.6168 17.4676 14.6168 17.4677 14.6168 17.4677C14.6168 17.4678 14.6167 17.4678 14.6167 17.4678C14.6167 17.4678 14.6168 17.4678 14.6169 17.4676C14.617 17.4673 14.6174 17.4667 14.6179 17.4657C14.6189 17.4637 14.6207 17.4605 14.6232 17.4559C14.6282 17.4468 14.6359 17.4327 14.6463 17.4142C14.667 17.377 14.6981 17.322 14.7381 17.2536C14.8183 17.1163 14.933 16.9269 15.0706 16.7192C15.3573 16.2865 15.701 15.8397 16.0098 15.5889L15.5684 15.0456L15.1269 14.5023C14.6434 14.8951 14.203 15.494 13.9035 15.9459C13.7481 16.1805 13.6193 16.3932 13.5292 16.5474C13.484 16.6248 13.4483 16.6879 13.4235 16.7324C13.4111 16.7546 13.4014 16.7723 13.3946 16.7847C13.3912 16.7909 13.3885 16.7958 13.3866 16.7994C13.3856 16.8012 13.3849 16.8026 13.3843 16.8037C13.384 16.8043 13.3837 16.8047 13.3835 16.8051C13.3834 16.8053 13.3834 16.8054 13.3833 16.8056C13.3832 16.8057 13.3832 16.8057 13.3832 16.8058C13.3831 16.8059 13.3831 16.8059 14 17.1367ZM15.5684 15.0456L16.0098 15.5889C16.2862 15.3642 16.7351 15.1337 17.1596 14.9485C17.3634 14.8596 17.547 14.7873 17.6794 14.7374C17.7454 14.7125 17.7982 14.6934 17.8338 14.6807C17.8516 14.6743 17.8651 14.6696 17.8737 14.6666C17.8781 14.6651 17.8812 14.664 17.8831 14.6634C17.884 14.663 17.8846 14.6628 17.8849 14.6627C17.885 14.6627 17.8851 14.6627 17.8851 14.6627C17.885 14.6627 17.885 14.6627 17.885 14.6627C17.8849 14.6627 17.8849 14.6627 17.8849 14.6627C17.8848 14.6628 17.8847 14.6628 17.6595 14C17.4343 13.3372 17.4342 13.3372 17.4341 13.3373C17.4341 13.3373 17.434 13.3373 17.4339 13.3373C17.4338 13.3374 17.4336 13.3374 17.4335 13.3375C17.4331 13.3376 17.4327 13.3378 17.4321 13.338C17.4311 13.3383 17.4297 13.3388 17.428 13.3394C17.4246 13.3406 17.4199 13.3422 17.4139 13.3443C17.402 13.3484 17.385 13.3543 17.3637 13.362C17.3209 13.3772 17.2601 13.3993 17.1855 13.4274C17.0365 13.4836 16.8302 13.5648 16.5998 13.6653C16.1558 13.859 15.5591 14.1511 15.1269 14.5023L15.5684 15.0456ZM29.1608 17.1367C29.7778 16.8059 29.7777 16.8059 29.7777 16.8058C29.7776 16.8057 29.7776 16.8057 29.7776 16.8056C29.7775 16.8054 29.7774 16.8053 29.7773 16.8051C29.7771 16.8047 29.7769 16.8043 29.7766 16.8037C29.776 16.8026 29.7752 16.8012 29.7742 16.7994C29.7723 16.7958 29.7696 16.7909 29.7662 16.7847C29.7594 16.7723 29.7497 16.7546 29.7373 16.7324C29.7125 16.6879 29.6768 16.6248 29.6316 16.5474C29.5415 16.3932 29.4128 16.1805 29.2573 15.9459C28.9579 15.494 28.5174 14.8951 28.0339 14.5023L27.5925 15.0456L27.1511 15.5889C27.4598 15.8397 27.8035 16.2865 28.0902 16.7192C28.2278 16.9269 28.3426 17.1163 28.4228 17.2536C28.4627 17.322 28.4938 17.377 28.5146 17.4142C28.5249 17.4327 28.5327 17.4468 28.5376 17.4559C28.5401 17.4605 28.5419 17.4637 28.5429 17.4657C28.5435 17.4667 28.5438 17.4673 28.544 17.4676C28.5441 17.4678 28.5441 17.4678 28.5441 17.4678C28.5441 17.4678 28.5441 17.4678 28.544 17.4677C28.544 17.4677 28.544 17.4676 28.544 17.4676C28.544 17.4676 28.5439 17.4675 29.1608 17.1367ZM27.5925 15.0456L28.0339 14.5023C27.6017 14.1511 27.005 13.859 26.5611 13.6653C26.3307 13.5648 26.1244 13.4836 25.9754 13.4274C25.9007 13.3993 25.8399 13.3772 25.7972 13.362C25.7758 13.3543 25.7589 13.3484 25.747 13.3443C25.741 13.3422 25.7363 13.3406 25.7328 13.3394C25.7311 13.3388 25.7297 13.3383 25.7287 13.338C25.7282 13.3378 25.7277 13.3376 25.7274 13.3375C25.7272 13.3374 25.727 13.3374 25.7269 13.3373C25.7268 13.3373 25.7267 13.3373 25.7267 13.3373C25.7266 13.3372 25.7266 13.3372 25.5013 14C25.2761 14.6628 25.276 14.6628 25.276 14.6627C25.276 14.6627 25.2759 14.6627 25.2759 14.6627C25.2758 14.6627 25.2758 14.6627 25.2758 14.6627C25.2758 14.6627 25.2758 14.6627 25.276 14.6627C25.2762 14.6628 25.2769 14.663 25.2778 14.6634C25.2796 14.664 25.2828 14.6651 25.2871 14.6666C25.2958 14.6696 25.3092 14.6743 25.327 14.6807C25.3627 14.6934 25.4155 14.7125 25.4815 14.7374C25.6139 14.7873 25.7975 14.8596 26.0013 14.9485C26.4257 15.1337 26.8746 15.3642 27.1511 15.5889L27.5925 15.0456ZM14 25.5013C13.3831 25.8321 13.3831 25.8322 13.3832 25.8323C13.3832 25.8323 13.3832 25.8324 13.3833 25.8325C13.3834 25.8326 13.3834 25.8328 13.3835 25.833C13.3837 25.8333 13.384 25.8338 13.3843 25.8343C13.3849 25.8354 13.3856 25.8369 13.3866 25.8386C13.3885 25.8422 13.3912 25.8471 13.3946 25.8534C13.4014 25.8658 13.4111 25.8834 13.4235 25.9057C13.4483 25.9502 13.484 26.0133 13.5292 26.0906C13.6193 26.2449 13.7481 26.4575 13.9035 26.6921C14.203 27.1441 14.6434 27.7429 15.1269 28.1358L15.5684 27.5925L16.0098 27.0492C15.701 26.7983 15.3573 26.3516 15.0706 25.9189C14.933 25.7112 14.8183 25.5218 14.7381 25.3845C14.6981 25.316 14.667 25.2611 14.6463 25.2239C14.6359 25.2053 14.6282 25.1912 14.6232 25.1821C14.6207 25.1776 14.6189 25.1743 14.6179 25.1724C14.6174 25.1714 14.617 25.1707 14.6169 25.1704C14.6168 25.1703 14.6167 25.1702 14.6167 25.1702C14.6167 25.1702 14.6168 25.1703 14.6168 25.1703C14.6168 25.1703 14.6168 25.1704 14.6168 25.1704C14.6169 25.1705 14.6169 25.1705 14 25.5013ZM15.5684 27.5925L15.1269 28.1358C15.5591 28.4869 16.1558 28.7791 16.5998 28.9728C16.8302 29.0733 17.0365 29.1545 17.1855 29.2106C17.2601 29.2388 17.3209 29.2608 17.3637 29.2761C17.385 29.2837 17.402 29.2896 17.4139 29.2938C17.4199 29.2959 17.4246 29.2975 17.428 29.2987C17.4297 29.2993 17.4311 29.2997 17.4321 29.3001C17.4327 29.3003 17.4331 29.3004 17.4335 29.3005C17.4336 29.3006 17.4338 29.3007 17.4339 29.3007C17.434 29.3007 17.4341 29.3008 17.4341 29.3008C17.4342 29.3008 17.4343 29.3008 17.6595 28.6381C17.8847 27.9753 17.8848 27.9753 17.8849 27.9753C17.8849 27.9753 17.8849 27.9753 17.885 27.9753C17.885 27.9754 17.885 27.9754 17.8851 27.9754C17.8851 27.9754 17.885 27.9754 17.8849 27.9753C17.8846 27.9752 17.884 27.975 17.8831 27.9747C17.8812 27.9741 17.8781 27.973 17.8737 27.9715C17.8651 27.9685 17.8516 27.9637 17.8338 27.9574C17.7982 27.9447 17.7454 27.9255 17.6794 27.9007C17.547 27.8507 17.3634 27.7785 17.1596 27.6896C16.7351 27.5044 16.2862 27.2738 16.0098 27.0492L15.5684 27.5925Z" fill="#F1F2F4"/>
</svg>
