<svg width="24" height="24" viewBox="0 0 24 24" fill="none" xmlns="http://www.w3.org/2000/svg">
<g clip-path="url(#clip0_803_80866)">
<path d="M15.2734 3.87402H7.54688C4.86743 3.87402 2.69531 6.04614 2.69531 8.72559V16.4521C2.69531 19.1316 4.86743 21.3037 7.54688 21.3037H15.2734C17.9529 21.3037 20.125 19.1316 20.125 16.4521V8.72559C20.125 6.04614 17.9529 3.87402 15.2734 3.87402Z" stroke="#F1F2F4" stroke-width="1.4"/>
<path d="M8.26562 4.05371V21.124" stroke="#F1F2F4" stroke-width="1.4" stroke-linecap="round"/>
<path d="M15.2736 15.1943L14.9317 14.953C14.1451 14.3978 13.4384 13.7373 12.8312 12.99C12.6839 12.8086 12.6839 12.5488 12.8312 12.3674C13.4384 11.6201 14.1451 10.9597 14.9317 10.4044L15.2736 10.1631" stroke="#F1F2F4" stroke-width="1.4" stroke-linecap="round" stroke-linejoin="round"/>
</g>
<defs>
<clipPath id="clip0_803_80866">
<rect width="24" height="24" fill="white"/>
</clipPath>
</defs>
</svg>
