<svg width="48" height="48" viewBox="0 0 48 48" fill="none" xmlns="http://www.w3.org/2000/svg">
<mask id="path-1-inside-1_801_40488" fill="white">
<path d="M0 16C0 7.16344 7.16344 0 16 0H32C40.8366 0 48 7.16344 48 16V32C48 40.8366 40.8366 48 32 48H16C7.16344 48 0 40.8366 0 32V16Z"/>
</mask>
<path d="M0 16C0 7.16344 7.16344 0 16 0H32C40.8366 0 48 7.16344 48 16V32C48 40.8366 40.8366 48 32 48H16C7.16344 48 0 40.8366 0 32V16Z" fill="#1B1C1F"/>
<path d="M16 0V1H32V0V-1H16V0ZM48 16H47V32H48H49V16H48ZM32 48V47H16V48V49H32V48ZM0 32H1V16H0H-1V32H0ZM16 48V47C7.71573 47 1 40.2843 1 32H0H-1C-1 41.3888 6.61116 49 16 49V48ZM48 32H47C47 40.2843 40.2843 47 32 47V48V49C41.3888 49 49 41.3888 49 32H48ZM32 0V1C40.2843 1 47 7.71573 47 16H48H49C49 6.61116 41.3888 -1 32 -1V0ZM16 0V-1C6.61116 -1 -1 6.61116 -1 16H0H1C1 7.71573 7.71573 1 16 1V0Z" fill="#242528" mask="url(#path-1-inside-1_801_40488)"/>
<path d="M31.281 30.2198C31.3507 30.2895 31.406 30.3722 31.4437 30.4632C31.4814 30.5543 31.5008 30.6519 31.5008 30.7504C31.5008 30.849 31.4814 30.9465 31.4437 31.0376C31.406 31.1286 31.3507 31.2114 31.281 31.281C31.2114 31.3507 31.1286 31.406 31.0376 31.4437C30.9465 31.4814 30.849 31.5008 30.7504 31.5008C30.6519 31.5008 30.5543 31.4814 30.4632 31.4437C30.3722 31.406 30.2895 31.3507 30.2198 31.281L24.0004 25.0607L17.781 31.281C17.6403 31.4218 17.4494 31.5008 17.2504 31.5008C17.0514 31.5008 16.8605 31.4218 16.7198 31.281C16.5791 31.1403 16.5 30.9494 16.5 30.7504C16.5 30.5514 16.5791 30.3605 16.7198 30.2198L22.9401 24.0004L16.7198 17.781C16.5791 17.6403 16.5 17.4494 16.5 17.2504C16.5 17.0514 16.5791 16.8605 16.7198 16.7198C16.8605 16.5791 17.0514 16.5 17.2504 16.5C17.4494 16.5 17.6403 16.5791 17.781 16.7198L24.0004 22.9401L30.2198 16.7198C30.3605 16.5791 30.5514 16.5 30.7504 16.5C30.9494 16.5 31.1403 16.5791 31.281 16.7198C31.4218 16.8605 31.5008 17.0514 31.5008 17.2504C31.5008 17.4494 31.4218 17.6403 31.281 17.781L25.0607 24.0004L31.281 30.2198Z" fill="#F1F2F4" stroke="#F1F2F4" stroke-width="0.2"/>
</svg>
