<svg width="48" height="48" viewBox="0 0 48 48" fill="none" xmlns="http://www.w3.org/2000/svg">
<mask id="path-1-inside-1_767_39945" fill="white">
<path d="M0 16C0 7.16344 7.16344 0 16 0H32C40.8366 0 48 7.16344 48 16V32C48 40.8366 40.8366 48 32 48H16C7.16344 48 0 40.8366 0 32V16Z"/>
</mask>
<path d="M0 16C0 7.16344 7.16344 0 16 0H32C40.8366 0 48 7.16344 48 16V32C48 40.8366 40.8366 48 32 48H16C7.16344 48 0 40.8366 0 32V16Z" fill="#1B1C1F"/>
<path d="M16 0V1H32V0V-1H16V0ZM48 16H47V32H48H49V16H48ZM32 48V47H16V48V49H32V48ZM0 32H1V16H0H-1V32H0ZM16 48V47C7.71573 47 1 40.2843 1 32H0H-1C-1 41.3888 6.61116 49 16 49V48ZM48 32H47C47 40.2843 40.2843 47 32 47V48V49C41.3888 49 49 41.3888 49 32H48ZM32 0V1C40.2843 1 47 7.71573 47 16H48H49C49 6.61116 41.3888 -1 32 -1V0ZM16 0V-1C6.61116 -1 -1 6.61116 -1 16H0H1C1 7.71573 7.71573 1 16 1V0Z" fill="#242528" mask="url(#path-1-inside-1_767_39945)"/>
<g clip-path="url(#clip0_767_39945)">
<path d="M17.055 15.2454C16.9891 15.1712 16.9092 15.1108 16.8198 15.0676C16.7304 15.0245 16.6333 14.9996 16.5342 14.9942C16.4351 14.9889 16.336 15.0033 16.2424 15.0366C16.1489 15.0699 16.063 15.1214 15.9895 15.1881C15.9161 15.2549 15.8566 15.3355 15.8146 15.4254C15.7725 15.5153 15.7487 15.6127 15.7446 15.7119C15.7405 15.811 15.756 15.91 15.7904 16.0031C15.8248 16.0962 15.8774 16.1816 15.945 16.2542L17.7487 18.2389C14.3437 20.3286 12.8794 23.5498 12.8147 23.6961C12.772 23.792 12.75 23.8958 12.75 24.0008C12.75 24.1057 12.772 24.2095 12.8147 24.3054C12.8475 24.3795 13.6416 26.1401 15.4069 27.9054C17.7591 30.2567 20.73 31.4998 24 31.4998C25.6806 31.5094 27.3442 31.1634 28.8816 30.4845L30.9441 32.7542C31.0099 32.8284 31.0899 32.8889 31.1793 32.932C31.2686 32.9751 31.3657 33.0001 31.4648 33.0054C31.5639 33.0107 31.6631 32.9963 31.7566 32.9631C31.8501 32.9298 31.9361 32.8783 32.0095 32.8115C32.083 32.7448 32.1424 32.6641 32.1845 32.5742C32.2265 32.4843 32.2503 32.3869 32.2544 32.2878C32.2586 32.1886 32.243 32.0896 32.2086 31.9965C32.1742 31.9034 32.1217 31.8181 32.0541 31.7454L17.055 15.2454ZM21.4922 22.3554L25.3987 26.6539C24.8105 26.9634 24.136 27.0687 23.4814 26.9534C22.8268 26.838 22.229 26.5085 21.7819 26.0166C21.3348 25.5247 21.0638 24.8982 21.0113 24.2355C20.9589 23.5729 21.128 22.9116 21.4922 22.3554ZM24 29.9998C21.1144 29.9998 18.5934 28.9508 16.5066 26.8826C15.65 26.0314 14.9214 25.0603 14.3437 23.9998C14.7834 23.1758 16.1869 20.8695 18.7828 19.3704L20.4703 21.222C19.817 22.0587 19.4805 23.0995 19.5204 24.1603C19.5602 25.2211 19.9738 26.2337 20.688 27.019C21.4023 27.8044 22.3711 28.312 23.4234 28.4521C24.4757 28.5921 25.5436 28.3557 26.4384 27.7845L27.8194 29.3033C26.6006 29.7708 25.3053 30.0071 24 29.9998ZM24.5625 21.0533C24.3671 21.016 24.1945 20.9026 24.0826 20.738C23.9708 20.5734 23.9289 20.3712 23.9662 20.1758C24.0035 19.9803 24.1169 19.8077 24.2815 19.6959C24.4461 19.5841 24.6483 19.5422 24.8437 19.5795C25.7996 19.7648 26.67 20.2542 27.325 20.9746C27.98 21.695 28.3846 22.6079 28.4784 23.577C28.4969 23.775 28.436 23.9723 28.3091 24.1255C28.1822 24.2786 27.9996 24.375 27.8016 24.3936C27.7781 24.3949 27.7547 24.3949 27.7312 24.3936C27.5438 24.3944 27.3628 24.3249 27.224 24.199C27.0852 24.073 26.9986 23.8996 26.9812 23.7129C26.9181 23.0683 26.6486 22.4613 26.2128 21.9821C25.7771 21.5029 25.1983 21.1771 24.5625 21.0533ZM35.1825 24.3054C35.1431 24.3936 34.1934 26.4964 32.055 28.4117C31.9819 28.4792 31.8962 28.5315 31.8027 28.5656C31.7092 28.5997 31.6099 28.6148 31.5105 28.6101C31.4111 28.6054 31.3136 28.5809 31.2238 28.5382C31.1339 28.4954 31.0535 28.4352 30.9871 28.3611C30.9208 28.287 30.8698 28.2004 30.8373 28.1064C30.8047 28.0124 30.7912 27.9128 30.7975 27.8135C30.8037 27.7142 30.8297 27.6172 30.8739 27.528C30.918 27.4388 30.9795 27.3594 31.0547 27.2942C32.1038 26.3517 32.9851 25.2377 33.6609 23.9998C33.082 22.9384 32.3518 21.9666 31.4934 21.1151C29.4066 19.0489 26.8856 17.9998 24 17.9998C23.392 17.9991 22.7849 18.0483 22.185 18.147C22.0874 18.1643 21.9874 18.162 21.8907 18.1404C21.794 18.1188 21.7026 18.0782 21.6217 18.021C21.5407 17.9639 21.4719 17.8913 21.4193 17.8074C21.3666 17.7235 21.331 17.6299 21.3147 17.5322C21.2983 17.4345 21.3015 17.3345 21.324 17.238C21.3465 17.1415 21.3879 17.0505 21.4458 16.9701C21.5038 16.8897 21.577 16.8216 21.6614 16.7697C21.7458 16.7178 21.8396 16.6831 21.9375 16.6676C22.6192 16.5551 23.309 16.4989 24 16.4998C27.27 16.4998 30.2409 17.7429 32.5931 20.0951C34.3584 21.8604 35.1525 23.622 35.1853 23.6961C35.2279 23.792 35.25 23.8958 35.25 24.0008C35.25 24.1057 35.2279 24.2095 35.1853 24.3054H35.1825Z" fill="#F1F2F4" stroke="#F1F2F4" stroke-width="0.2"/>
</g>
<defs>
<clipPath id="clip0_767_39945">
<rect width="24" height="24" fill="white" transform="translate(12 12)"/>
</clipPath>
</defs>
</svg>
