<svg width="48" height="48" viewBox="0 0 48 48" fill="none" xmlns="http://www.w3.org/2000/svg">
<mask id="path-1-inside-1_767_39935" fill="white">
<path d="M0 16C0 7.16344 7.16344 0 16 0H32C40.8366 0 48 7.16344 48 16V32C48 40.8366 40.8366 48 32 48H16C7.16344 48 0 40.8366 0 32V16Z"/>
</mask>
<path d="M0 16C0 7.16344 7.16344 0 16 0H32C40.8366 0 48 7.16344 48 16V32C48 40.8366 40.8366 48 32 48H16C7.16344 48 0 40.8366 0 32V16Z" fill="#1B1C1F"/>
<path d="M16 0V1H32V0V-1H16V0ZM48 16H47V32H48H49V16H48ZM32 48V47H16V48V49H32V48ZM0 32H1V16H0H-1V32H0ZM16 48V47C7.71573 47 1 40.2843 1 32H0H-1C-1 41.3888 6.61116 49 16 49V48ZM48 32H47C47 40.2843 40.2843 47 32 47V48V49C41.3888 49 49 41.3888 49 32H48ZM32 0V1C40.2843 1 47 7.71573 47 16H48H49C49 6.61116 41.3888 -1 32 -1V0ZM16 0V-1C6.61116 -1 -1 6.61116 -1 16H0H1C1 7.71573 7.71573 1 16 1V0Z" fill="#242528" mask="url(#path-1-inside-1_767_39935)"/>
<path d="M21.2942 26C19.9196 26 19.2322 26 18.6572 25.7642C18.0249 25.5049 17.4833 25.0456 17.1059 24.4488C16.7626 23.9059 16.6117 23.1951 16.3099 21.7736C16.052 20.5584 15.923 19.9509 16.0485 19.4685C16.186 18.9397 16.5224 18.4939 16.979 18.2356C17.3955 18 17.983 18 19.1581 18H28.8419C30.017 18 30.6045 18 31.021 18.2356C31.4776 18.4939 31.814 18.9397 31.9515 19.4685C32.077 19.9509 31.948 20.5584 31.6901 21.7736C31.3883 23.1951 31.2374 23.9059 30.8941 24.4488C30.5167 25.0456 29.9751 25.5049 29.3428 25.7642C28.7678 26 28.0805 26 26.7058 26" stroke="#F1F2F4" stroke-width="1.4"/>
<path d="M18 18L18.5149 15.9403C18.8 14.8 19.8246 14 21 14" stroke="#F1F2F4" stroke-width="1.4" stroke-linecap="round"/>
<path d="M30 18L29.4851 15.9403C29.2 14.8 28.1754 14 27 14" stroke="#F1F2F4" stroke-width="1.4" stroke-linecap="round"/>
<path d="M21.2842 24L22.0603 29.5726C22.1053 29.8955 22.1278 30.0569 22.0834 30.1822C21.8768 30.7653 21.0875 30.3874 20.6607 30.5626C20.5315 30.6156 20.415 30.7004 20.32 30.8107C20.2079 30.9409 20.1387 31.1192 20.0004 31.4758C19.739 32.1496 19.1504 33.0988 19.7829 33.7379C20.0423 34 20.5028 34 21.4236 34H26.5764C27.4972 34 27.9577 34 28.2171 33.7379C28.8496 33.0988 28.261 32.1496 27.9996 31.4758C27.8613 31.1192 27.7921 30.9409 27.68 30.8107C27.585 30.7004 27.4685 30.6156 27.3393 30.5626C26.9125 30.3874 26.1232 30.7653 25.9166 30.1822C25.8722 30.0569 25.8947 29.8955 25.9397 29.5726L26.7158 24" stroke="#F1F2F4" stroke-width="1.4" stroke-linecap="round" stroke-linejoin="round"/>
</svg>
