<svg width="48" height="48" viewBox="0 0 48 48" fill="none" xmlns="http://www.w3.org/2000/svg">
<mask id="path-1-inside-1_767_39906" fill="white">
<path d="M0 16C0 7.16344 7.16344 0 16 0H32C40.8366 0 48 7.16344 48 16V32C48 40.8366 40.8366 48 32 48H16C7.16344 48 0 40.8366 0 32V16Z"/>
</mask>
<path d="M16 0V1H32V0V-1H16V0ZM48 16H47V32H48H49V16H48ZM32 48V47H16V48V49H32V48ZM0 32H1V16H0H-1V32H0ZM16 48V47C7.71573 47 1 40.2843 1 32H0H-1C-1 41.3888 6.61116 49 16 49V48ZM48 32H47C47 40.2843 40.2843 47 32 47V48V49C41.3888 49 49 41.3888 49 32H48ZM32 0V1C40.2843 1 47 7.71573 47 16H48H49C49 6.61116 41.3888 -1 32 -1V0ZM16 0V-1C6.61116 -1 -1 6.61116 -1 16H0H1C1 7.71573 7.71573 1 16 1V0Z" fill="#242528" mask="url(#path-1-inside-1_767_39906)"/>
<path d="M30.749 18V27.75C30.749 27.9489 30.6699 28.1397 30.5293 28.2803C30.3886 28.421 30.1979 28.5 29.999 28.5C29.8 28.5 29.6093 28.421 29.4686 28.2803C29.328 28.1397 29.249 27.9489 29.249 27.75V19.8103L20 29.0613C19.8593 29.202 19.6684 29.281 19.4694 29.281C19.2704 29.281 19.0795 29.202 18.9387 29.0613C18.798 28.9205 18.719 28.7296 18.719 28.5306C18.719 28.3316 18.798 28.1407 18.9387 28L28.1886 18.75H20.249C20.0501 18.75 19.8593 18.671 19.7186 18.5303C19.578 18.3897 19.499 18.1989 19.499 18C19.499 17.8011 19.578 17.6103 19.7186 17.4697C19.8593 17.329 20.0501 17.25 20.249 17.25H29.999C30.1979 17.25 30.3886 17.329 30.5293 17.4697C30.6699 17.6103 30.749 17.8011 30.749 18Z" fill="#F1F2F4" stroke="#F1F2F4" stroke-width="0.2"/>
</svg>
