<svg width="33" height="32" viewBox="0 0 33 32" fill="none" xmlns="http://www.w3.org/2000/svg">
<mask id="path-1-outside-1_803_44879" maskUnits="userSpaceOnUse" x="-0.700195" y="2.45996" width="33" height="28" fill="black">
<rect fill="white" x="-0.700195" y="2.45996" width="33" height="28"/>
<path d="M7.99023 14.5352C8.70494 14.5353 9.39892 14.7743 9.96094 15.2148C10.1094 15.1937 10.2617 15.1836 10.416 15.1836H22.0918C22.1799 15.1836 22.2672 15.1873 22.3535 15.1943C22.9107 14.7672 23.5936 14.5352 24.2969 14.5352H28.792C30.5563 14.5352 31.9873 15.9651 31.9873 17.7295V20.2061C31.9873 20.7169 31.7796 21.2308 31.3564 21.5811C30.4431 22.3369 28.0464 24.0929 25.2861 24.1631V26.0986C25.2859 26.9077 24.7708 27.6393 23.9795 27.8818C22.385 28.3701 18.8567 29.3563 16.2539 29.3564C13.6513 29.3564 10.1232 28.3702 8.52832 27.8818C7.73676 27.6394 7.22187 26.9078 7.22168 26.0986V24.1641C4.22449 24.1011 1.82418 22.3401 0.913086 21.5732C0.498779 21.2245 0.299837 20.7181 0.299805 20.2188V17.7295C0.299805 15.9651 1.73076 14.5352 3.49512 14.5352H7.99023ZM10.416 16.3828C9.3144 16.3828 8.4209 17.2763 8.4209 18.3779V26.0986C8.42109 26.3992 8.6103 26.6518 8.87988 26.7344C10.4871 27.2265 13.8543 28.1562 16.2539 28.1562C18.6538 28.1561 22.021 27.2264 23.6279 26.7344C23.8973 26.6517 24.0857 26.3991 24.0859 26.0986V18.3779C24.0859 17.2765 23.1932 16.383 22.0918 16.3828H10.416ZM3.49512 15.7344C2.3935 15.7344 1.5 16.6279 1.5 17.7295V20.2188C1.50003 20.4073 1.57365 20.561 1.68555 20.6553C2.53975 21.3742 4.66042 22.9003 7.22168 22.9639V18.3779C7.22168 17.3226 7.73473 16.3892 8.52344 15.8076C8.35092 15.7596 8.17172 15.7344 7.99023 15.7344H3.49512ZM24.2969 15.7344C24.1736 15.7344 24.0514 15.7462 23.9316 15.7686C24.7502 16.3469 25.2861 17.2993 25.2861 18.3779V22.9639C27.6005 22.8924 29.7102 21.386 30.5918 20.6562C30.7105 20.5579 30.7871 20.3986 30.7871 20.2061V17.7295C30.7871 16.6279 29.8936 15.7344 28.792 15.7344H24.2969ZM5.87207 7.78418C7.66325 7.78418 9.11516 9.23618 9.11523 11.0273C9.1151 12.8184 7.66321 14.2705 5.87207 14.2705C4.081 14.2704 2.62904 12.8184 2.62891 11.0273C2.62898 9.23623 4.08096 7.78426 5.87207 7.78418ZM26.6289 7.78418C28.4201 7.78418 29.872 9.23618 29.8721 11.0273C29.8719 12.8184 28.42 14.2705 26.6289 14.2705C24.8379 14.2704 23.3859 12.8184 23.3857 11.0273C23.3858 9.23625 24.8378 7.7843 26.6289 7.78418ZM16.7305 3.4668C19.4724 3.60566 21.6533 5.87294 21.6533 8.64941L21.6465 8.91602C21.5074 11.6577 19.2401 13.8388 16.4639 13.8389L16.1963 13.832C13.5433 13.6971 11.4158 11.5691 11.2812 8.91602L11.2744 8.64941C11.2744 5.78362 13.5981 3.46022 16.4639 3.45996L16.7305 3.4668ZM5.87207 8.78418C4.63325 8.78426 3.62898 9.78852 3.62891 11.0273C3.62904 12.2661 4.63329 13.2704 5.87207 13.2705C7.11092 13.2705 8.1151 12.2662 8.11523 11.0273C8.11516 9.78847 7.11096 8.78418 5.87207 8.78418ZM26.6289 8.78418C25.3901 8.7843 24.3858 9.78854 24.3857 11.0273C24.3859 12.2661 25.3902 13.2704 26.6289 13.2705C27.8678 13.2705 28.8719 12.2662 28.8721 11.0273C28.872 9.78847 27.8678 8.78418 26.6289 8.78418ZM16.4639 4.66016C14.2609 4.66042 12.4746 6.44636 12.4746 8.64941C12.4749 10.8522 14.2611 12.6384 16.4639 12.6387C18.6668 12.6386 20.4528 10.8523 20.4531 8.64941C20.4531 6.44626 18.667 4.66026 16.4639 4.66016Z"/>
</mask>
<path d="M7.99023 14.5352C8.70494 14.5353 9.39892 14.7743 9.96094 15.2148C10.1094 15.1937 10.2617 15.1836 10.416 15.1836H22.0918C22.1799 15.1836 22.2672 15.1873 22.3535 15.1943C22.9107 14.7672 23.5936 14.5352 24.2969 14.5352H28.792C30.5563 14.5352 31.9873 15.9651 31.9873 17.7295V20.2061C31.9873 20.7169 31.7796 21.2308 31.3564 21.5811C30.4431 22.3369 28.0464 24.0929 25.2861 24.1631V26.0986C25.2859 26.9077 24.7708 27.6393 23.9795 27.8818C22.385 28.3701 18.8567 29.3563 16.2539 29.3564C13.6513 29.3564 10.1232 28.3702 8.52832 27.8818C7.73676 27.6394 7.22187 26.9078 7.22168 26.0986V24.1641C4.22449 24.1011 1.82418 22.3401 0.913086 21.5732C0.498779 21.2245 0.299837 20.7181 0.299805 20.2188V17.7295C0.299805 15.9651 1.73076 14.5352 3.49512 14.5352H7.99023ZM10.416 16.3828C9.3144 16.3828 8.4209 17.2763 8.4209 18.3779V26.0986C8.42109 26.3992 8.6103 26.6518 8.87988 26.7344C10.4871 27.2265 13.8543 28.1562 16.2539 28.1562C18.6538 28.1561 22.021 27.2264 23.6279 26.7344C23.8973 26.6517 24.0857 26.3991 24.0859 26.0986V18.3779C24.0859 17.2765 23.1932 16.383 22.0918 16.3828H10.416ZM3.49512 15.7344C2.3935 15.7344 1.5 16.6279 1.5 17.7295V20.2188C1.50003 20.4073 1.57365 20.561 1.68555 20.6553C2.53975 21.3742 4.66042 22.9003 7.22168 22.9639V18.3779C7.22168 17.3226 7.73473 16.3892 8.52344 15.8076C8.35092 15.7596 8.17172 15.7344 7.99023 15.7344H3.49512ZM24.2969 15.7344C24.1736 15.7344 24.0514 15.7462 23.9316 15.7686C24.7502 16.3469 25.2861 17.2993 25.2861 18.3779V22.9639C27.6005 22.8924 29.7102 21.386 30.5918 20.6562C30.7105 20.5579 30.7871 20.3986 30.7871 20.2061V17.7295C30.7871 16.6279 29.8936 15.7344 28.792 15.7344H24.2969ZM5.87207 7.78418C7.66325 7.78418 9.11516 9.23618 9.11523 11.0273C9.1151 12.8184 7.66321 14.2705 5.87207 14.2705C4.081 14.2704 2.62904 12.8184 2.62891 11.0273C2.62898 9.23623 4.08096 7.78426 5.87207 7.78418ZM26.6289 7.78418C28.4201 7.78418 29.872 9.23618 29.8721 11.0273C29.8719 12.8184 28.42 14.2705 26.6289 14.2705C24.8379 14.2704 23.3859 12.8184 23.3857 11.0273C23.3858 9.23625 24.8378 7.7843 26.6289 7.78418ZM16.7305 3.4668C19.4724 3.60566 21.6533 5.87294 21.6533 8.64941L21.6465 8.91602C21.5074 11.6577 19.2401 13.8388 16.4639 13.8389L16.1963 13.832C13.5433 13.6971 11.4158 11.5691 11.2812 8.91602L11.2744 8.64941C11.2744 5.78362 13.5981 3.46022 16.4639 3.45996L16.7305 3.4668ZM5.87207 8.78418C4.63325 8.78426 3.62898 9.78852 3.62891 11.0273C3.62904 12.2661 4.63329 13.2704 5.87207 13.2705C7.11092 13.2705 8.1151 12.2662 8.11523 11.0273C8.11516 9.78847 7.11096 8.78418 5.87207 8.78418ZM26.6289 8.78418C25.3901 8.7843 24.3858 9.78854 24.3857 11.0273C24.3859 12.2661 25.3902 13.2704 26.6289 13.2705C27.8678 13.2705 28.8719 12.2662 28.8721 11.0273C28.872 9.78847 27.8678 8.78418 26.6289 8.78418ZM16.4639 4.66016C14.2609 4.66042 12.4746 6.44636 12.4746 8.64941C12.4749 10.8522 14.2611 12.6384 16.4639 12.6387C18.6668 12.6386 20.4528 10.8523 20.4531 8.64941C20.4531 6.44626 18.667 4.66026 16.4639 4.66016Z" fill="#F1F2F4"/>
<path d="M7.99023 14.5352C8.70494 14.5353 9.39892 14.7743 9.96094 15.2148C10.1094 15.1937 10.2617 15.1836 10.416 15.1836H22.0918C22.1799 15.1836 22.2672 15.1873 22.3535 15.1943C22.9107 14.7672 23.5936 14.5352 24.2969 14.5352H28.792C30.5563 14.5352 31.9873 15.9651 31.9873 17.7295V20.2061C31.9873 20.7169 31.7796 21.2308 31.3564 21.5811C30.4431 22.3369 28.0464 24.0929 25.2861 24.1631V26.0986C25.2859 26.9077 24.7708 27.6393 23.9795 27.8818C22.385 28.3701 18.8567 29.3563 16.2539 29.3564C13.6513 29.3564 10.1232 28.3702 8.52832 27.8818C7.73676 27.6394 7.22187 26.9078 7.22168 26.0986V24.1641C4.22449 24.1011 1.82418 22.3401 0.913086 21.5732C0.498779 21.2245 0.299837 20.7181 0.299805 20.2188V17.7295C0.299805 15.9651 1.73076 14.5352 3.49512 14.5352H7.99023ZM10.416 16.3828C9.3144 16.3828 8.4209 17.2763 8.4209 18.3779V26.0986C8.42109 26.3992 8.6103 26.6518 8.87988 26.7344C10.4871 27.2265 13.8543 28.1562 16.2539 28.1562C18.6538 28.1561 22.021 27.2264 23.6279 26.7344C23.8973 26.6517 24.0857 26.3991 24.0859 26.0986V18.3779C24.0859 17.2765 23.1932 16.383 22.0918 16.3828H10.416ZM3.49512 15.7344C2.3935 15.7344 1.5 16.6279 1.5 17.7295V20.2188C1.50003 20.4073 1.57365 20.561 1.68555 20.6553C2.53975 21.3742 4.66042 22.9003 7.22168 22.9639V18.3779C7.22168 17.3226 7.73473 16.3892 8.52344 15.8076C8.35092 15.7596 8.17172 15.7344 7.99023 15.7344H3.49512ZM24.2969 15.7344C24.1736 15.7344 24.0514 15.7462 23.9316 15.7686C24.7502 16.3469 25.2861 17.2993 25.2861 18.3779V22.9639C27.6005 22.8924 29.7102 21.386 30.5918 20.6562C30.7105 20.5579 30.7871 20.3986 30.7871 20.2061V17.7295C30.7871 16.6279 29.8936 15.7344 28.792 15.7344H24.2969ZM5.87207 7.78418C7.66325 7.78418 9.11516 9.23618 9.11523 11.0273C9.1151 12.8184 7.66321 14.2705 5.87207 14.2705C4.081 14.2704 2.62904 12.8184 2.62891 11.0273C2.62898 9.23623 4.08096 7.78426 5.87207 7.78418ZM26.6289 7.78418C28.4201 7.78418 29.872 9.23618 29.8721 11.0273C29.8719 12.8184 28.42 14.2705 26.6289 14.2705C24.8379 14.2704 23.3859 12.8184 23.3857 11.0273C23.3858 9.23625 24.8378 7.7843 26.6289 7.78418ZM16.7305 3.4668C19.4724 3.60566 21.6533 5.87294 21.6533 8.64941L21.6465 8.91602C21.5074 11.6577 19.2401 13.8388 16.4639 13.8389L16.1963 13.832C13.5433 13.6971 11.4158 11.5691 11.2812 8.91602L11.2744 8.64941C11.2744 5.78362 13.5981 3.46022 16.4639 3.45996L16.7305 3.4668ZM5.87207 8.78418C4.63325 8.78426 3.62898 9.78852 3.62891 11.0273C3.62904 12.2661 4.63329 13.2704 5.87207 13.2705C7.11092 13.2705 8.1151 12.2662 8.11523 11.0273C8.11516 9.78847 7.11096 8.78418 5.87207 8.78418ZM26.6289 8.78418C25.3901 8.7843 24.3858 9.78854 24.3857 11.0273C24.3859 12.2661 25.3902 13.2704 26.6289 13.2705C27.8678 13.2705 28.8719 12.2662 28.8721 11.0273C28.872 9.78847 27.8678 8.78418 26.6289 8.78418ZM16.4639 4.66016C14.2609 4.66042 12.4746 6.44636 12.4746 8.64941C12.4749 10.8522 14.2611 12.6384 16.4639 12.6387C18.6668 12.6386 20.4528 10.8523 20.4531 8.64941C20.4531 6.44626 18.667 4.66026 16.4639 4.66016Z" fill="url(#paint0_linear_803_44879)"/>
<path d="M7.99023 14.5352L7.99028 14.2352H7.99023V14.5352ZM9.96094 15.2148L9.77586 15.451L9.87657 15.5299L10.0032 15.5118L9.96094 15.2148ZM22.0918 15.1836L22.0918 14.8836H22.0918V15.1836ZM22.3535 15.1943L22.3292 15.4934L22.4444 15.5027L22.536 15.4324L22.3535 15.1943ZM24.2969 14.5352V14.2352H24.2969L24.2969 14.5352ZM31.9873 20.2061L32.2873 20.2061V20.2061H31.9873ZM31.3564 21.5811L31.5477 21.8122L31.5477 21.8122L31.3564 21.5811ZM25.2861 24.1631L25.2785 23.8632L24.9861 23.8706V24.1631H25.2861ZM25.2861 26.0986L25.5861 26.0987V26.0986H25.2861ZM23.9795 27.8818L24.0673 28.1687L24.0674 28.1687L23.9795 27.8818ZM16.2539 29.3564V29.6564H16.2539L16.2539 29.3564ZM8.52832 27.8818L8.44046 28.1687L8.44049 28.1687L8.52832 27.8818ZM7.22168 26.0986H6.92168V26.0987L7.22168 26.0986ZM7.22168 24.1641H7.52168V23.8703L7.22798 23.8641L7.22168 24.1641ZM0.913086 21.5732L0.719879 21.8027L0.719908 21.8028L0.913086 21.5732ZM0.299805 20.2188H-0.000195324V20.2188L0.299805 20.2188ZM8.4209 26.0986H8.1209V26.0988L8.4209 26.0986ZM8.87988 26.7344L8.79205 27.0212H8.79205L8.87988 26.7344ZM16.2539 28.1562V28.4562H16.2539L16.2539 28.1562ZM23.6279 26.7344L23.7158 27.0212L23.7159 27.0212L23.6279 26.7344ZM24.0859 26.0986L24.3859 26.0988V26.0986H24.0859ZM22.0918 16.3828L22.0919 16.0828H22.0918V16.3828ZM1.5 20.2188H1.2V20.2188L1.5 20.2188ZM1.68555 20.6553L1.49221 20.8847L1.49237 20.8848L1.68555 20.6553ZM7.22168 22.9639L7.21423 23.2638L7.52168 23.2714V22.9639H7.22168ZM8.52344 15.8076L8.70149 16.0491L9.19707 15.6836L8.60384 15.5186L8.52344 15.8076ZM7.99023 15.7344L7.9903 15.4344H7.99023V15.7344ZM24.2969 15.7344V15.4344H24.2969L24.2969 15.7344ZM23.9316 15.7686L23.8766 15.4737L23.1788 15.604L23.7585 16.0136L23.9316 15.7686ZM25.2861 22.9639H24.9861V23.2733L25.2954 23.2637L25.2861 22.9639ZM30.5918 20.6562L30.7831 20.8874L30.7832 20.8873L30.5918 20.6562ZM30.7871 20.2061L31.0871 20.2061V20.2061H30.7871ZM5.87207 7.78418V7.48418H5.87206L5.87207 7.78418ZM9.11523 11.0273L9.41523 11.0274V11.0273L9.11523 11.0273ZM5.87207 14.2705L5.87206 14.5705H5.87207V14.2705ZM2.62891 11.0273L2.32891 11.0273V11.0274L2.62891 11.0273ZM26.6289 7.78418V7.48418H26.6289L26.6289 7.78418ZM29.8721 11.0273L30.1721 11.0274V11.0273L29.8721 11.0273ZM26.6289 14.2705L26.6289 14.5705H26.6289V14.2705ZM23.3857 11.0273L23.0857 11.0273V11.0274L23.3857 11.0273ZM16.7305 3.4668L16.7456 3.16709L16.7382 3.1669L16.7305 3.4668ZM21.6533 8.64941L21.9533 8.65711V8.64941H21.6533ZM21.6465 8.91602L21.9462 8.93122L21.9464 8.92371L21.6465 8.91602ZM16.4639 13.8389L16.4562 14.1389H16.4639L16.4639 13.8389ZM16.1963 13.832L16.1811 14.1317L16.1886 14.1319L16.1963 13.832ZM11.2812 8.91602L10.9813 8.92371L10.9816 8.93121L11.2812 8.91602ZM11.2744 8.64941H10.9743L10.9745 8.6571L11.2744 8.64941ZM16.4639 3.45996L16.4716 3.15996L16.4638 3.15996L16.4639 3.45996ZM5.87207 8.78418V8.48418H5.87205L5.87207 8.78418ZM3.62891 11.0273L3.32891 11.0273V11.0274L3.62891 11.0273ZM5.87207 13.2705L5.87205 13.5705H5.87207V13.2705ZM8.11523 11.0273L8.41523 11.0274V11.0273L8.11523 11.0273ZM26.6289 8.78418V8.48418H26.6289L26.6289 8.78418ZM24.3857 11.0273L24.0857 11.0273V11.0274L24.3857 11.0273ZM26.6289 13.2705L26.6289 13.5705H26.6289V13.2705ZM28.8721 11.0273L29.1721 11.0274V11.0273L28.8721 11.0273ZM16.4639 4.66016L16.4639 4.36016H16.4638L16.4639 4.66016ZM12.4746 8.64941H12.1746V8.64946L12.4746 8.64941ZM16.4639 12.6387L16.4638 12.9387H16.4639L16.4639 12.6387ZM20.4531 8.64941L20.7531 8.64946V8.64941H20.4531ZM7.99023 14.5352L7.99019 14.8352C8.638 14.8353 9.2668 15.0519 9.77586 15.451L9.96094 15.2148L10.146 14.9787C9.53104 14.4967 8.77187 14.2353 7.99028 14.2352L7.99023 14.5352ZM9.96094 15.2148L10.0032 15.5118C10.1366 15.4928 10.2747 15.4836 10.416 15.4836V15.1836V14.8836C10.2487 14.8836 10.0822 14.8945 9.91863 14.9178L9.96094 15.2148ZM10.416 15.1836V15.4836H22.0918V15.1836V14.8836H10.416V15.1836ZM22.0918 15.1836L22.0918 15.4836C22.1715 15.4836 22.2506 15.487 22.3292 15.4934L22.3535 15.1943L22.3778 14.8953C22.2837 14.8877 22.1884 14.8836 22.0918 14.8836L22.0918 15.1836ZM22.3535 15.1943L22.536 15.4324C23.0409 15.0454 23.6596 14.8352 24.2969 14.8352L24.2969 14.5352L24.2969 14.2352C23.5275 14.2352 22.7806 14.489 22.171 14.9562L22.3535 15.1943ZM24.2969 14.5352V14.8352H28.792V14.5352V14.2352H24.2969V14.5352ZM28.792 14.5352V14.8352C30.3908 14.8352 31.6873 16.1309 31.6873 17.7295H31.9873H32.2873C32.2873 15.7993 30.7219 14.2352 28.792 14.2352V14.5352ZM31.9873 17.7295H31.6873V20.2061H31.9873H32.2873V17.7295H31.9873ZM31.9873 20.2061L31.6873 20.206C31.6873 20.6374 31.5121 21.0627 31.1652 21.35L31.3564 21.5811L31.5477 21.8122C32.047 21.3989 32.2873 20.7963 32.2873 20.2061L31.9873 20.2061ZM31.3564 21.5811L31.1652 21.3499C30.26 22.0991 27.9311 23.7958 25.2785 23.8632L25.2861 24.1631L25.2938 24.463C28.1617 24.3901 30.6263 22.5748 31.5477 21.8122L31.3564 21.5811ZM25.2861 24.1631H24.9861V26.0986H25.2861H25.5861V24.1631H25.2861ZM25.2861 26.0986L24.9861 26.0986C24.986 26.7807 24.5522 27.3925 23.8916 27.595L23.9795 27.8818L24.0674 28.1687C24.9894 27.886 25.5859 27.0346 25.5861 26.0987L25.2861 26.0986ZM23.9795 27.8818L23.8917 27.595C22.2941 28.0842 18.806 29.0563 16.2539 29.0564L16.2539 29.3564L16.2539 29.6564C18.9074 29.6563 22.4758 28.656 24.0673 28.1687L23.9795 27.8818ZM16.2539 29.3564V29.0564C13.702 29.0564 10.2141 28.0843 8.61615 27.595L8.52832 27.8818L8.44049 28.1687C10.0323 28.6561 13.6006 29.6564 16.2539 29.6564V29.3564ZM8.52832 27.8818L8.61618 27.595C7.9554 27.3926 7.52184 26.7809 7.52168 26.0986L7.22168 26.0986L6.92168 26.0987C6.9219 27.0346 7.51812 27.8862 8.44046 28.1687L8.52832 27.8818ZM7.22168 26.0986H7.52168V24.1641H7.22168H6.92168V26.0986H7.22168ZM7.22168 24.1641L7.22798 23.8641C4.33656 23.8034 2.00322 22.0986 1.10626 21.3437L0.913086 21.5732L0.719908 21.8028C1.64514 22.5815 4.11241 24.3988 7.21538 24.464L7.22168 24.1641ZM0.913086 21.5732L1.10629 21.3437C0.767581 21.0586 0.599832 20.6405 0.599805 20.2187L0.299805 20.2188L-0.000195324 20.2188C-0.000157565 20.7958 0.229977 21.3903 0.719879 21.8027L0.913086 21.5732ZM0.299805 20.2188H0.599805V17.7295H0.299805H-0.000195324V20.2188H0.299805ZM0.299805 17.7295H0.599805C0.599805 16.1309 1.89633 14.8352 3.49512 14.8352V14.5352V14.2352C1.5652 14.2352 -0.000195324 15.7993 -0.000195324 17.7295H0.299805ZM3.49512 14.5352V14.8352H7.99023V14.5352V14.2352H3.49512V14.5352ZM10.416 16.3828V16.0828C9.14872 16.0828 8.1209 17.1106 8.1209 18.3779H8.4209H8.7209C8.7209 17.442 9.48009 16.6828 10.416 16.6828V16.3828ZM8.4209 18.3779H8.1209V26.0986H8.4209H8.7209V18.3779H8.4209ZM8.4209 26.0986L8.1209 26.0988C8.12117 26.5278 8.39324 26.8991 8.79205 27.0212L8.87988 26.7344L8.96772 26.4475C8.82736 26.4045 8.72101 26.2706 8.7209 26.0984L8.4209 26.0986ZM8.87988 26.7344L8.79205 27.0212C10.3961 27.5124 13.8035 28.4562 16.2539 28.4562V28.1562V27.8563C13.905 27.8563 10.5781 26.9406 8.96772 26.4475L8.87988 26.7344ZM16.2539 28.1562L16.2539 28.4562C18.7045 28.4561 22.112 27.5123 23.7158 27.0212L23.6279 26.7344L23.5401 26.4475C21.93 26.9405 18.603 27.8561 16.2539 27.8563L16.2539 28.1562ZM23.6279 26.7344L23.7159 27.0212C24.115 26.8988 24.3857 26.5271 24.3859 26.0988L24.0859 26.0986L23.7859 26.0984C23.7858 26.2711 23.6797 26.4047 23.5399 26.4476L23.6279 26.7344ZM24.0859 26.0986H24.3859V18.3779H24.0859H23.7859V26.0986H24.0859ZM24.0859 18.3779H24.3859C24.3859 17.1109 23.359 16.0831 22.0919 16.0828L22.0918 16.3828L22.0917 16.6828C23.0274 16.683 23.7859 17.442 23.7859 18.3779H24.0859ZM22.0918 16.3828V16.0828H10.416V16.3828V16.6828H22.0918V16.3828ZM3.49512 15.7344V15.4344C2.22782 15.4344 1.2 16.4622 1.2 17.7295H1.5H1.8C1.8 16.7936 2.55919 16.0344 3.49512 16.0344V15.7344ZM1.5 17.7295H1.2V20.2188H1.5H1.8V17.7295H1.5ZM1.5 20.2188L1.2 20.2188C1.20005 20.486 1.30558 20.7274 1.49221 20.8847L1.68555 20.6553L1.87888 20.4259C1.84171 20.3946 1.80002 20.3285 1.8 20.2187L1.5 20.2188ZM1.68555 20.6553L1.49237 20.8848C2.36084 21.6157 4.54798 23.1976 7.21423 23.2638L7.22168 22.9639L7.22913 22.664C4.77287 22.603 2.71867 21.1327 1.87872 20.4257L1.68555 20.6553ZM7.22168 22.9639H7.52168V18.3779H7.22168H6.92168V22.9639H7.22168ZM7.22168 18.3779H7.52168C7.52168 17.4224 7.98574 16.5769 8.70149 16.0491L8.52344 15.8076L8.34539 15.5662C7.48371 16.2016 6.92168 17.2228 6.92168 18.3779H7.22168ZM8.52344 15.8076L8.60384 15.5186C8.40577 15.4635 8.19956 15.4344 7.9903 15.4344L7.99023 15.7344L7.99016 16.0344C8.14388 16.0344 8.29607 16.0558 8.44304 16.0966L8.52344 15.8076ZM7.99023 15.7344V15.4344H3.49512V15.7344V16.0344H7.99023V15.7344ZM24.2969 15.7344L24.2969 15.4344C24.1545 15.4344 24.0138 15.448 23.8766 15.4737L23.9316 15.7686L23.9867 16.0635C24.089 16.0443 24.1928 16.0344 24.2969 16.0344L24.2969 15.7344ZM23.9316 15.7686L23.7585 16.0136C24.5013 16.5384 24.9861 17.4012 24.9861 18.3779H25.2861H25.5861C25.5861 17.1974 24.9991 16.1555 24.1048 15.5235L23.9316 15.7686ZM25.2861 18.3779H24.9861V22.9639H25.2861H25.5861V18.3779H25.2861ZM25.2861 22.9639L25.2954 23.2637C27.7164 23.189 29.8933 21.6238 30.7831 20.8874L30.5918 20.6562L30.4005 20.4251C29.5271 21.1481 27.4846 22.5959 25.2769 22.664L25.2861 22.9639ZM30.5918 20.6562L30.7832 20.8873C30.9773 20.7265 31.0871 20.479 31.0871 20.2061L30.7871 20.2061L30.4871 20.206C30.4871 20.3182 30.4437 20.3894 30.4004 20.4252L30.5918 20.6562ZM30.7871 20.2061H31.0871V17.7295H30.7871H30.4871V20.2061H30.7871ZM30.7871 17.7295H31.0871C31.0871 16.4622 30.0593 15.4344 28.792 15.4344V15.7344V16.0344C29.7279 16.0344 30.4871 16.7936 30.4871 17.7295H30.7871ZM28.792 15.7344V15.4344H24.2969V15.7344V16.0344H28.792V15.7344ZM5.87207 7.78418V8.08418C7.49755 8.08418 8.81517 9.40186 8.81523 11.0274L9.11523 11.0273L9.41523 11.0273C9.41516 9.07051 7.82895 7.48418 5.87207 7.48418V7.78418ZM9.11523 11.0273L8.81523 11.0273C8.81511 12.6528 7.4975 13.9705 5.87207 13.9705V14.2705V14.5705C7.82892 14.5705 9.41508 12.9841 9.41523 11.0274L9.11523 11.0273ZM5.87207 14.2705L5.87208 13.9705C4.2467 13.9704 2.92903 12.6527 2.92891 11.0273L2.62891 11.0273L2.32891 11.0274C2.32906 12.9841 3.91531 14.5704 5.87206 14.5705L5.87207 14.2705ZM2.62891 11.0273L2.92891 11.0274C2.92897 9.40192 4.24665 8.08425 5.87208 8.08418L5.87207 7.78418L5.87206 7.48418C3.91528 7.48427 2.32898 9.07054 2.32891 11.0273L2.62891 11.0273ZM26.6289 7.78418V8.08418C28.2544 8.08418 29.572 9.40186 29.5721 11.0274L29.8721 11.0273L30.1721 11.0273C30.172 9.07051 28.5858 7.48418 26.6289 7.48418V7.78418ZM29.8721 11.0273L29.5721 11.0273C29.5719 12.6528 28.2543 13.9705 26.6289 13.9705V14.2705V14.5705C28.5858 14.5705 30.1719 12.9841 30.1721 11.0274L29.8721 11.0273ZM26.6289 14.2705L26.6289 13.9705C25.0036 13.9704 23.6859 12.6527 23.6857 11.0273L23.3857 11.0273L23.0857 11.0274C23.0859 12.9841 24.6722 14.5704 26.6289 14.5705L26.6289 14.2705ZM23.3857 11.0273L23.6857 11.0274C23.6858 9.40195 25.0035 8.08429 26.6289 8.08418L26.6289 7.78418L26.6289 7.48418C24.6721 7.48431 23.0858 9.07056 23.0857 11.0273L23.3857 11.0273ZM16.7305 3.4668L16.7153 3.76641C19.2985 3.89723 21.3533 6.03356 21.3533 8.64941H21.6533H21.9533C21.9533 5.71231 19.6464 3.31408 16.7456 3.16718L16.7305 3.4668ZM21.6533 8.64941L21.3534 8.64172L21.3466 8.90833L21.6465 8.91602L21.9464 8.92371L21.9532 8.6571L21.6533 8.64941ZM21.6465 8.91602L21.3469 8.90082C21.2159 11.4838 19.0795 13.5388 16.4639 13.5389L16.4639 13.8389L16.4639 14.1389C19.4008 14.1388 21.799 11.8317 21.9461 8.93121L21.6465 8.91602ZM16.4639 13.8389L16.4715 13.539L16.204 13.5321L16.1963 13.832L16.1886 14.1319L16.4562 14.1388L16.4639 13.8389ZM16.1963 13.832L16.2115 13.5324C13.7123 13.4053 11.7076 11.4002 11.5809 8.90082L11.2812 8.91602L10.9816 8.93121C11.124 11.738 13.3743 13.9889 16.1811 14.1316L16.1963 13.832ZM11.2812 8.91602L11.5812 8.90833L11.5743 8.64172L11.2744 8.64941L10.9745 8.6571L10.9813 8.92371L11.2812 8.91602ZM11.2744 8.64941H11.5744C11.5744 5.94933 13.7638 3.76021 16.4639 3.75996L16.4639 3.45996L16.4638 3.15996C13.4325 3.16024 10.9744 5.61791 10.9744 8.64941H11.2744ZM16.4639 3.45996L16.4562 3.75986L16.7228 3.7667L16.7305 3.4668L16.7382 3.1669L16.4716 3.16006L16.4639 3.45996ZM5.87207 8.78418L5.87205 8.48418C4.46756 8.48427 3.32899 9.62283 3.32891 11.0273L3.62891 11.0273L3.92891 11.0274C3.92897 9.95421 4.79893 9.08425 5.87209 9.08418L5.87207 8.78418ZM3.62891 11.0273L3.32891 11.0274C3.32906 12.4318 4.46759 13.5704 5.87205 13.5705L5.87207 13.2705L5.87209 12.9705C4.79899 12.9704 3.92903 12.1004 3.92891 11.0273L3.62891 11.0273ZM5.87207 13.2705V13.5705C7.27664 13.5705 8.41508 12.4318 8.41523 11.0274L8.11523 11.0273L7.81523 11.0273C7.81511 12.1005 6.9452 12.9705 5.87207 12.9705V13.2705ZM8.11523 11.0273L8.41523 11.0273C8.41516 9.62279 7.27667 8.48418 5.87207 8.48418V8.78418V9.08418C6.94526 9.08418 7.81517 9.95414 7.81523 11.0274L8.11523 11.0273ZM26.6289 8.78418L26.6289 8.48418C25.2244 8.48431 24.0858 9.62284 24.0857 11.0273L24.3857 11.0273L24.6857 11.0274C24.6858 9.95424 25.5558 9.08428 26.6289 9.08418L26.6289 8.78418ZM24.3857 11.0273L24.0857 11.0274C24.0859 12.4318 25.2245 13.5704 26.6289 13.5705L26.6289 13.2705L26.6289 12.9705C25.5558 12.9704 24.6859 12.1004 24.6857 11.0273L24.3857 11.0273ZM26.6289 13.2705V13.5705C28.0335 13.5705 29.1719 12.4318 29.1721 11.0274L28.8721 11.0273L28.5721 11.0273C28.572 12.1005 27.702 12.9705 26.6289 12.9705V13.2705ZM28.8721 11.0273L29.1721 11.0273C29.172 9.62279 28.0335 8.48418 26.6289 8.48418V8.78418V9.08418C27.7021 9.08418 28.572 9.95414 28.5721 11.0274L28.8721 11.0273ZM16.4639 4.66016L16.4638 4.36016C14.0952 4.36044 12.1746 6.28064 12.1746 8.64941H12.4746H12.7746C12.7746 6.61208 14.4265 4.9604 16.4639 4.96016L16.4639 4.66016ZM12.4746 8.64941L12.1746 8.64946C12.1749 11.0179 14.0954 12.9384 16.4638 12.9387L16.4639 12.6387L16.4639 12.3387C14.4268 12.3384 12.7749 10.6865 12.7746 8.64937L12.4746 8.64941ZM16.4639 12.6387L16.4639 12.9387C18.8325 12.9386 20.7528 11.018 20.7531 8.64946L20.4531 8.64941L20.1531 8.64937C20.1528 10.6866 18.5011 12.3386 16.4639 12.3387L16.4639 12.6387ZM20.4531 8.64941H20.7531C20.7531 6.28056 18.8327 4.36026 16.4639 4.36016L16.4639 4.66016L16.4639 4.96016C18.5013 4.96025 20.1531 6.61196 20.1531 8.64941H20.4531Z" fill="#F1F2F4" mask="url(#path-1-outside-1_803_44879)"/>
<path d="M7.99023 14.5352L7.99028 14.2352H7.99023V14.5352ZM9.96094 15.2148L9.77586 15.451L9.87657 15.5299L10.0032 15.5118L9.96094 15.2148ZM22.0918 15.1836L22.0918 14.8836H22.0918V15.1836ZM22.3535 15.1943L22.3292 15.4934L22.4444 15.5027L22.536 15.4324L22.3535 15.1943ZM24.2969 14.5352V14.2352H24.2969L24.2969 14.5352ZM31.9873 20.2061L32.2873 20.2061V20.2061H31.9873ZM31.3564 21.5811L31.5477 21.8122L31.5477 21.8122L31.3564 21.5811ZM25.2861 24.1631L25.2785 23.8632L24.9861 23.8706V24.1631H25.2861ZM25.2861 26.0986L25.5861 26.0987V26.0986H25.2861ZM23.9795 27.8818L24.0673 28.1687L24.0674 28.1687L23.9795 27.8818ZM16.2539 29.3564V29.6564H16.2539L16.2539 29.3564ZM8.52832 27.8818L8.44046 28.1687L8.44049 28.1687L8.52832 27.8818ZM7.22168 26.0986H6.92168V26.0987L7.22168 26.0986ZM7.22168 24.1641H7.52168V23.8703L7.22798 23.8641L7.22168 24.1641ZM0.913086 21.5732L0.719879 21.8027L0.719908 21.8028L0.913086 21.5732ZM0.299805 20.2188H-0.000195324V20.2188L0.299805 20.2188ZM8.4209 26.0986H8.1209V26.0988L8.4209 26.0986ZM8.87988 26.7344L8.79205 27.0212H8.79205L8.87988 26.7344ZM16.2539 28.1562V28.4562H16.2539L16.2539 28.1562ZM23.6279 26.7344L23.7158 27.0212L23.7159 27.0212L23.6279 26.7344ZM24.0859 26.0986L24.3859 26.0988V26.0986H24.0859ZM22.0918 16.3828L22.0919 16.0828H22.0918V16.3828ZM1.5 20.2188H1.2V20.2188L1.5 20.2188ZM1.68555 20.6553L1.49221 20.8847L1.49237 20.8848L1.68555 20.6553ZM7.22168 22.9639L7.21423 23.2638L7.52168 23.2714V22.9639H7.22168ZM8.52344 15.8076L8.70149 16.0491L9.19707 15.6836L8.60384 15.5186L8.52344 15.8076ZM7.99023 15.7344L7.9903 15.4344H7.99023V15.7344ZM24.2969 15.7344V15.4344H24.2969L24.2969 15.7344ZM23.9316 15.7686L23.8766 15.4737L23.1788 15.604L23.7585 16.0136L23.9316 15.7686ZM25.2861 22.9639H24.9861V23.2733L25.2954 23.2637L25.2861 22.9639ZM30.5918 20.6562L30.7831 20.8874L30.7832 20.8873L30.5918 20.6562ZM30.7871 20.2061L31.0871 20.2061V20.2061H30.7871ZM5.87207 7.78418V7.48418H5.87206L5.87207 7.78418ZM9.11523 11.0273L9.41523 11.0274V11.0273L9.11523 11.0273ZM5.87207 14.2705L5.87206 14.5705H5.87207V14.2705ZM2.62891 11.0273L2.32891 11.0273V11.0274L2.62891 11.0273ZM26.6289 7.78418V7.48418H26.6289L26.6289 7.78418ZM29.8721 11.0273L30.1721 11.0274V11.0273L29.8721 11.0273ZM26.6289 14.2705L26.6289 14.5705H26.6289V14.2705ZM23.3857 11.0273L23.0857 11.0273V11.0274L23.3857 11.0273ZM16.7305 3.4668L16.7456 3.16709L16.7382 3.1669L16.7305 3.4668ZM21.6533 8.64941L21.9533 8.65711V8.64941H21.6533ZM21.6465 8.91602L21.9462 8.93122L21.9464 8.92371L21.6465 8.91602ZM16.4639 13.8389L16.4562 14.1389H16.4639L16.4639 13.8389ZM16.1963 13.832L16.1811 14.1317L16.1886 14.1319L16.1963 13.832ZM11.2812 8.91602L10.9813 8.92371L10.9816 8.93121L11.2812 8.91602ZM11.2744 8.64941H10.9743L10.9745 8.6571L11.2744 8.64941ZM16.4639 3.45996L16.4716 3.15996L16.4638 3.15996L16.4639 3.45996ZM5.87207 8.78418V8.48418H5.87205L5.87207 8.78418ZM3.62891 11.0273L3.32891 11.0273V11.0274L3.62891 11.0273ZM5.87207 13.2705L5.87205 13.5705H5.87207V13.2705ZM8.11523 11.0273L8.41523 11.0274V11.0273L8.11523 11.0273ZM26.6289 8.78418V8.48418H26.6289L26.6289 8.78418ZM24.3857 11.0273L24.0857 11.0273V11.0274L24.3857 11.0273ZM26.6289 13.2705L26.6289 13.5705H26.6289V13.2705ZM28.8721 11.0273L29.1721 11.0274V11.0273L28.8721 11.0273ZM16.4639 4.66016L16.4639 4.36016H16.4638L16.4639 4.66016ZM12.4746 8.64941H12.1746V8.64946L12.4746 8.64941ZM16.4639 12.6387L16.4638 12.9387H16.4639L16.4639 12.6387ZM20.4531 8.64941L20.7531 8.64946V8.64941H20.4531ZM7.99023 14.5352L7.99019 14.8352C8.638 14.8353 9.2668 15.0519 9.77586 15.451L9.96094 15.2148L10.146 14.9787C9.53104 14.4967 8.77187 14.2353 7.99028 14.2352L7.99023 14.5352ZM9.96094 15.2148L10.0032 15.5118C10.1366 15.4928 10.2747 15.4836 10.416 15.4836V15.1836V14.8836C10.2487 14.8836 10.0822 14.8945 9.91863 14.9178L9.96094 15.2148ZM10.416 15.1836V15.4836H22.0918V15.1836V14.8836H10.416V15.1836ZM22.0918 15.1836L22.0918 15.4836C22.1715 15.4836 22.2506 15.487 22.3292 15.4934L22.3535 15.1943L22.3778 14.8953C22.2837 14.8877 22.1884 14.8836 22.0918 14.8836L22.0918 15.1836ZM22.3535 15.1943L22.536 15.4324C23.0409 15.0454 23.6596 14.8352 24.2969 14.8352L24.2969 14.5352L24.2969 14.2352C23.5275 14.2352 22.7806 14.489 22.171 14.9562L22.3535 15.1943ZM24.2969 14.5352V14.8352H28.792V14.5352V14.2352H24.2969V14.5352ZM28.792 14.5352V14.8352C30.3908 14.8352 31.6873 16.1309 31.6873 17.7295H31.9873H32.2873C32.2873 15.7993 30.7219 14.2352 28.792 14.2352V14.5352ZM31.9873 17.7295H31.6873V20.2061H31.9873H32.2873V17.7295H31.9873ZM31.9873 20.2061L31.6873 20.206C31.6873 20.6374 31.5121 21.0627 31.1652 21.35L31.3564 21.5811L31.5477 21.8122C32.047 21.3989 32.2873 20.7963 32.2873 20.2061L31.9873 20.2061ZM31.3564 21.5811L31.1652 21.3499C30.26 22.0991 27.9311 23.7958 25.2785 23.8632L25.2861 24.1631L25.2938 24.463C28.1617 24.3901 30.6263 22.5748 31.5477 21.8122L31.3564 21.5811ZM25.2861 24.1631H24.9861V26.0986H25.2861H25.5861V24.1631H25.2861ZM25.2861 26.0986L24.9861 26.0986C24.986 26.7807 24.5522 27.3925 23.8916 27.595L23.9795 27.8818L24.0674 28.1687C24.9894 27.886 25.5859 27.0346 25.5861 26.0987L25.2861 26.0986ZM23.9795 27.8818L23.8917 27.595C22.2941 28.0842 18.806 29.0563 16.2539 29.0564L16.2539 29.3564L16.2539 29.6564C18.9074 29.6563 22.4758 28.656 24.0673 28.1687L23.9795 27.8818ZM16.2539 29.3564V29.0564C13.702 29.0564 10.2141 28.0843 8.61615 27.595L8.52832 27.8818L8.44049 28.1687C10.0323 28.6561 13.6006 29.6564 16.2539 29.6564V29.3564ZM8.52832 27.8818L8.61618 27.595C7.9554 27.3926 7.52184 26.7809 7.52168 26.0986L7.22168 26.0986L6.92168 26.0987C6.9219 27.0346 7.51812 27.8862 8.44046 28.1687L8.52832 27.8818ZM7.22168 26.0986H7.52168V24.1641H7.22168H6.92168V26.0986H7.22168ZM7.22168 24.1641L7.22798 23.8641C4.33656 23.8034 2.00322 22.0986 1.10626 21.3437L0.913086 21.5732L0.719908 21.8028C1.64514 22.5815 4.11241 24.3988 7.21538 24.464L7.22168 24.1641ZM0.913086 21.5732L1.10629 21.3437C0.767581 21.0586 0.599832 20.6405 0.599805 20.2187L0.299805 20.2188L-0.000195324 20.2188C-0.000157565 20.7958 0.229977 21.3903 0.719879 21.8027L0.913086 21.5732ZM0.299805 20.2188H0.599805V17.7295H0.299805H-0.000195324V20.2188H0.299805ZM0.299805 17.7295H0.599805C0.599805 16.1309 1.89633 14.8352 3.49512 14.8352V14.5352V14.2352C1.5652 14.2352 -0.000195324 15.7993 -0.000195324 17.7295H0.299805ZM3.49512 14.5352V14.8352H7.99023V14.5352V14.2352H3.49512V14.5352ZM10.416 16.3828V16.0828C9.14872 16.0828 8.1209 17.1106 8.1209 18.3779H8.4209H8.7209C8.7209 17.442 9.48009 16.6828 10.416 16.6828V16.3828ZM8.4209 18.3779H8.1209V26.0986H8.4209H8.7209V18.3779H8.4209ZM8.4209 26.0986L8.1209 26.0988C8.12117 26.5278 8.39324 26.8991 8.79205 27.0212L8.87988 26.7344L8.96772 26.4475C8.82736 26.4045 8.72101 26.2706 8.7209 26.0984L8.4209 26.0986ZM8.87988 26.7344L8.79205 27.0212C10.3961 27.5124 13.8035 28.4562 16.2539 28.4562V28.1562V27.8563C13.905 27.8563 10.5781 26.9406 8.96772 26.4475L8.87988 26.7344ZM16.2539 28.1562L16.2539 28.4562C18.7045 28.4561 22.112 27.5123 23.7158 27.0212L23.6279 26.7344L23.5401 26.4475C21.93 26.9405 18.603 27.8561 16.2539 27.8563L16.2539 28.1562ZM23.6279 26.7344L23.7159 27.0212C24.115 26.8988 24.3857 26.5271 24.3859 26.0988L24.0859 26.0986L23.7859 26.0984C23.7858 26.2711 23.6797 26.4047 23.5399 26.4476L23.6279 26.7344ZM24.0859 26.0986H24.3859V18.3779H24.0859H23.7859V26.0986H24.0859ZM24.0859 18.3779H24.3859C24.3859 17.1109 23.359 16.0831 22.0919 16.0828L22.0918 16.3828L22.0917 16.6828C23.0274 16.683 23.7859 17.442 23.7859 18.3779H24.0859ZM22.0918 16.3828V16.0828H10.416V16.3828V16.6828H22.0918V16.3828ZM3.49512 15.7344V15.4344C2.22782 15.4344 1.2 16.4622 1.2 17.7295H1.5H1.8C1.8 16.7936 2.55919 16.0344 3.49512 16.0344V15.7344ZM1.5 17.7295H1.2V20.2188H1.5H1.8V17.7295H1.5ZM1.5 20.2188L1.2 20.2188C1.20005 20.486 1.30558 20.7274 1.49221 20.8847L1.68555 20.6553L1.87888 20.4259C1.84171 20.3946 1.80002 20.3285 1.8 20.2187L1.5 20.2188ZM1.68555 20.6553L1.49237 20.8848C2.36084 21.6157 4.54798 23.1976 7.21423 23.2638L7.22168 22.9639L7.22913 22.664C4.77287 22.603 2.71867 21.1327 1.87872 20.4257L1.68555 20.6553ZM7.22168 22.9639H7.52168V18.3779H7.22168H6.92168V22.9639H7.22168ZM7.22168 18.3779H7.52168C7.52168 17.4224 7.98574 16.5769 8.70149 16.0491L8.52344 15.8076L8.34539 15.5662C7.48371 16.2016 6.92168 17.2228 6.92168 18.3779H7.22168ZM8.52344 15.8076L8.60384 15.5186C8.40577 15.4635 8.19956 15.4344 7.9903 15.4344L7.99023 15.7344L7.99016 16.0344C8.14388 16.0344 8.29607 16.0558 8.44304 16.0966L8.52344 15.8076ZM7.99023 15.7344V15.4344H3.49512V15.7344V16.0344H7.99023V15.7344ZM24.2969 15.7344L24.2969 15.4344C24.1545 15.4344 24.0138 15.448 23.8766 15.4737L23.9316 15.7686L23.9867 16.0635C24.089 16.0443 24.1928 16.0344 24.2969 16.0344L24.2969 15.7344ZM23.9316 15.7686L23.7585 16.0136C24.5013 16.5384 24.9861 17.4012 24.9861 18.3779H25.2861H25.5861C25.5861 17.1974 24.9991 16.1555 24.1048 15.5235L23.9316 15.7686ZM25.2861 18.3779H24.9861V22.9639H25.2861H25.5861V18.3779H25.2861ZM25.2861 22.9639L25.2954 23.2637C27.7164 23.189 29.8933 21.6238 30.7831 20.8874L30.5918 20.6562L30.4005 20.4251C29.5271 21.1481 27.4846 22.5959 25.2769 22.664L25.2861 22.9639ZM30.5918 20.6562L30.7832 20.8873C30.9773 20.7265 31.0871 20.479 31.0871 20.2061L30.7871 20.2061L30.4871 20.206C30.4871 20.3182 30.4437 20.3894 30.4004 20.4252L30.5918 20.6562ZM30.7871 20.2061H31.0871V17.7295H30.7871H30.4871V20.2061H30.7871ZM30.7871 17.7295H31.0871C31.0871 16.4622 30.0593 15.4344 28.792 15.4344V15.7344V16.0344C29.7279 16.0344 30.4871 16.7936 30.4871 17.7295H30.7871ZM28.792 15.7344V15.4344H24.2969V15.7344V16.0344H28.792V15.7344ZM5.87207 7.78418V8.08418C7.49755 8.08418 8.81517 9.40186 8.81523 11.0274L9.11523 11.0273L9.41523 11.0273C9.41516 9.07051 7.82895 7.48418 5.87207 7.48418V7.78418ZM9.11523 11.0273L8.81523 11.0273C8.81511 12.6528 7.4975 13.9705 5.87207 13.9705V14.2705V14.5705C7.82892 14.5705 9.41508 12.9841 9.41523 11.0274L9.11523 11.0273ZM5.87207 14.2705L5.87208 13.9705C4.2467 13.9704 2.92903 12.6527 2.92891 11.0273L2.62891 11.0273L2.32891 11.0274C2.32906 12.9841 3.91531 14.5704 5.87206 14.5705L5.87207 14.2705ZM2.62891 11.0273L2.92891 11.0274C2.92897 9.40192 4.24665 8.08425 5.87208 8.08418L5.87207 7.78418L5.87206 7.48418C3.91528 7.48427 2.32898 9.07054 2.32891 11.0273L2.62891 11.0273ZM26.6289 7.78418V8.08418C28.2544 8.08418 29.572 9.40186 29.5721 11.0274L29.8721 11.0273L30.1721 11.0273C30.172 9.07051 28.5858 7.48418 26.6289 7.48418V7.78418ZM29.8721 11.0273L29.5721 11.0273C29.5719 12.6528 28.2543 13.9705 26.6289 13.9705V14.2705V14.5705C28.5858 14.5705 30.1719 12.9841 30.1721 11.0274L29.8721 11.0273ZM26.6289 14.2705L26.6289 13.9705C25.0036 13.9704 23.6859 12.6527 23.6857 11.0273L23.3857 11.0273L23.0857 11.0274C23.0859 12.9841 24.6722 14.5704 26.6289 14.5705L26.6289 14.2705ZM23.3857 11.0273L23.6857 11.0274C23.6858 9.40195 25.0035 8.08429 26.6289 8.08418L26.6289 7.78418L26.6289 7.48418C24.6721 7.48431 23.0858 9.07056 23.0857 11.0273L23.3857 11.0273ZM16.7305 3.4668L16.7153 3.76641C19.2985 3.89723 21.3533 6.03356 21.3533 8.64941H21.6533H21.9533C21.9533 5.71231 19.6464 3.31408 16.7456 3.16718L16.7305 3.4668ZM21.6533 8.64941L21.3534 8.64172L21.3466 8.90833L21.6465 8.91602L21.9464 8.92371L21.9532 8.6571L21.6533 8.64941ZM21.6465 8.91602L21.3469 8.90082C21.2159 11.4838 19.0795 13.5388 16.4639 13.5389L16.4639 13.8389L16.4639 14.1389C19.4008 14.1388 21.799 11.8317 21.9461 8.93121L21.6465 8.91602ZM16.4639 13.8389L16.4715 13.539L16.204 13.5321L16.1963 13.832L16.1886 14.1319L16.4562 14.1388L16.4639 13.8389ZM16.1963 13.832L16.2115 13.5324C13.7123 13.4053 11.7076 11.4002 11.5809 8.90082L11.2812 8.91602L10.9816 8.93121C11.124 11.738 13.3743 13.9889 16.1811 14.1316L16.1963 13.832ZM11.2812 8.91602L11.5812 8.90833L11.5743 8.64172L11.2744 8.64941L10.9745 8.6571L10.9813 8.92371L11.2812 8.91602ZM11.2744 8.64941H11.5744C11.5744 5.94933 13.7638 3.76021 16.4639 3.75996L16.4639 3.45996L16.4638 3.15996C13.4325 3.16024 10.9744 5.61791 10.9744 8.64941H11.2744ZM16.4639 3.45996L16.4562 3.75986L16.7228 3.7667L16.7305 3.4668L16.7382 3.1669L16.4716 3.16006L16.4639 3.45996ZM5.87207 8.78418L5.87205 8.48418C4.46756 8.48427 3.32899 9.62283 3.32891 11.0273L3.62891 11.0273L3.92891 11.0274C3.92897 9.95421 4.79893 9.08425 5.87209 9.08418L5.87207 8.78418ZM3.62891 11.0273L3.32891 11.0274C3.32906 12.4318 4.46759 13.5704 5.87205 13.5705L5.87207 13.2705L5.87209 12.9705C4.79899 12.9704 3.92903 12.1004 3.92891 11.0273L3.62891 11.0273ZM5.87207 13.2705V13.5705C7.27664 13.5705 8.41508 12.4318 8.41523 11.0274L8.11523 11.0273L7.81523 11.0273C7.81511 12.1005 6.9452 12.9705 5.87207 12.9705V13.2705ZM8.11523 11.0273L8.41523 11.0273C8.41516 9.62279 7.27667 8.48418 5.87207 8.48418V8.78418V9.08418C6.94526 9.08418 7.81517 9.95414 7.81523 11.0274L8.11523 11.0273ZM26.6289 8.78418L26.6289 8.48418C25.2244 8.48431 24.0858 9.62284 24.0857 11.0273L24.3857 11.0273L24.6857 11.0274C24.6858 9.95424 25.5558 9.08428 26.6289 9.08418L26.6289 8.78418ZM24.3857 11.0273L24.0857 11.0274C24.0859 12.4318 25.2245 13.5704 26.6289 13.5705L26.6289 13.2705L26.6289 12.9705C25.5558 12.9704 24.6859 12.1004 24.6857 11.0273L24.3857 11.0273ZM26.6289 13.2705V13.5705C28.0335 13.5705 29.1719 12.4318 29.1721 11.0274L28.8721 11.0273L28.5721 11.0273C28.572 12.1005 27.702 12.9705 26.6289 12.9705V13.2705ZM28.8721 11.0273L29.1721 11.0273C29.172 9.62279 28.0335 8.48418 26.6289 8.48418V8.78418V9.08418C27.7021 9.08418 28.572 9.95414 28.5721 11.0274L28.8721 11.0273ZM16.4639 4.66016L16.4638 4.36016C14.0952 4.36044 12.1746 6.28064 12.1746 8.64941H12.4746H12.7746C12.7746 6.61208 14.4265 4.9604 16.4639 4.96016L16.4639 4.66016ZM12.4746 8.64941L12.1746 8.64946C12.1749 11.0179 14.0954 12.9384 16.4638 12.9387L16.4639 12.6387L16.4639 12.3387C14.4268 12.3384 12.7749 10.6865 12.7746 8.64937L12.4746 8.64941ZM16.4639 12.6387L16.4639 12.9387C18.8325 12.9386 20.7528 11.018 20.7531 8.64946L20.4531 8.64941L20.1531 8.64937C20.1528 10.6866 18.5011 12.3386 16.4639 12.3387L16.4639 12.6387ZM20.4531 8.64941H20.7531C20.7531 6.28056 18.8327 4.36026 16.4639 4.36016L16.4639 4.66016L16.4639 4.96016C18.5013 4.96025 20.1531 6.61196 20.1531 8.64941H20.4531Z" fill="url(#paint1_linear_803_44879)" mask="url(#path-1-outside-1_803_44879)"/>
<defs>
<linearGradient id="paint0_linear_803_44879" x1="42.0677" y1="29.3609" x2="-2.5587" y2="-5.24405" gradientUnits="userSpaceOnUse">
<stop stop-color="#F1F2F4" stop-opacity="0"/>
<stop offset="1" stop-color="#141414"/>
</linearGradient>
<linearGradient id="paint1_linear_803_44879" x1="42.0677" y1="29.3609" x2="-2.5587" y2="-5.24405" gradientUnits="userSpaceOnUse">
<stop stop-color="#F3F4F6" stop-opacity="0"/>
<stop offset="1" stop-color="#141414"/>
</linearGradient>
</defs>
</svg>
